<?xml version="1.0" encoding="UTF-8"?>
<svg width="314px" height="172px" viewBox="0 0 314 172" version="1.1" xmlns="http://www.w3.org/2000/svg" xmlns:xlink="http://www.w3.org/1999/xlink">
    <!-- Generator: Sketch 49.2 (51160) - http://www.bohemiancoding.com/sketch -->
    <title>3_triblock_pre-footer</title>
    <desc>Created with Sketch.</desc>
    <defs>
        <filter x="-2.7%" y="-6.8%" width="105.3%" height="117.9%" filterUnits="objectBoundingBox" id="filter-1">
            <feOffset dx="0" dy="8" in="SourceAlpha" result="shadowOffsetOuter1"></feOffset>
            <feGaussianBlur stdDeviation="10" in="shadowOffsetOuter1" result="shadowBlurOuter1"></feGaussianBlur>
            <feColorMatrix values="0 0 0 0 0   0 0 0 0 0   0 0 0 0 0  0 0 0 0.5 0" type="matrix" in="shadowBlurOuter1" result="shadowMatrixOuter1"></feColorMatrix>
            <feMerge>
                <feMergeNode in="shadowMatrixOuter1"></feMergeNode>
                <feMergeNode in="SourceGraphic"></feMergeNode>
            </feMerge>
        </filter>
    </defs>
    <g id="Page-1" stroke="none" stroke-width="1" fill="none" fill-rule="evenodd">
        <g id="v3" transform="translate(-966.000000, -7195.000000)" fill="#333333" fill-rule="nonzero">
            <g id="FOOTER" transform="translate(0.000000, 7083.000000)">
                <g id="FINAL-CTA" filter="url(#filter-1)">
                    <g id="3_triblock_pre-footer" transform="translate(986.000000, 123.000000)">
                        <path d="M84.0929949,133.999986 C83.8086352,134.0011 83.5279655,133.935616 83.2734638,133.808779 L42.1421094,113.322273 L42.0783681,113.322273 L0.956119596,90.9692181 C0.384694014,90.6394191 0.0363462013,90.0263799 0.0455295046,89.3667181 L0.0455295046,46.4361064 L0,46.4361064 C0.0196492466,45.7865191 0.384020925,45.196635 0.956119596,44.888237 L83.2279343,0.218548599 C83.7678257,-0.0728495329 84.4181642,-0.0728495329 84.9580555,0.218548599 L126.098516,22.5442877 C126.290114,22.6475997 126.460125,22.7866874 126.59934,22.9540178 C126.674209,23.0420919 126.74124,23.1365371 126.79967,23.2362763 C126.921657,23.4734733 126.990046,23.7345695 127,24.0011059 L127,109.707542 C127.00001,110.376806 126.632874,110.992142 126.04388,111.310042 L84.9580555,133.781463 C84.6922834,133.924899 84.3950086,133.999994 84.0929949,133.999986 Z M46.8953897,111.619616 L82.2718147,129.238011 L82.2718147,92.3531954 L46.8953897,111.619616 Z M85.9141751,90.4502266 L85.9141751,129.119645 L123.412275,108.769716 L123.412275,70.1094023 L85.9141751,90.4502266 Z M3.64236036,88.31963 L41.1404603,108.669559 L41.1404603,69.8817745 L3.64236036,49.5318451 L3.64236036,88.31963 Z M44.7828207,69.8817745 L44.7828207,108.624034 L82.2718147,88.2012635 L82.2718147,49.5318451 L44.7828207,69.8817745 Z M85.9141751,49.4134786 L85.9141751,86.2254538 L121.281494,67.0318738 L85.9141751,49.4134786 Z M5.63655266,46.4361064 L42.9707464,66.6858795 L80.2776224,46.4361064 L42.9434287,26.1772281 L5.63655266,46.4361064 Z M88.03585,46.4361064 L123.412275,64.0545016 L123.412275,27.206106 L88.03585,46.4361064 Z M46.777013,24.1467877 L84.1112067,44.3965609 L121.4454,24.1467877 L84.1112067,3.88790947 L46.777013,24.1467877 Z" id="Shape"></path>
                        <path d="M167.092995,133.999986 C166.808635,134.0011 166.527966,133.935616 166.273464,133.808779 L125.142109,113.322273 L125.078368,113.322273 L83.9561196,90.9692181 C83.384694,90.6394191 83.0363462,90.0263799 83.0455295,89.3667181 L83.0455295,46.4361064 L83,46.4361064 C83.0196492,45.7865191 83.3840209,45.196635 83.9561196,44.888237 L166.227934,0.218548599 C166.767826,-0.0728495329 167.418164,-0.0728495329 167.958055,0.218548599 L209.098516,22.5442877 C209.290114,22.6475997 209.460125,22.7866874 209.59934,22.9540178 C209.674209,23.0420919 209.74124,23.1365371 209.79967,23.2362763 C209.921657,23.4734733 209.990046,23.7345695 210,24.0011059 L210,109.707542 C210.00001,110.376806 209.632874,110.992142 209.04388,111.310042 L167.958055,133.781463 C167.692283,133.924899 167.395009,133.999994 167.092995,133.999986 Z M129.89539,111.619616 L165.271815,129.238011 L165.271815,92.3531954 L129.89539,111.619616 Z M168.914175,90.4502266 L168.914175,129.119645 L206.412275,108.769716 L206.412275,70.1094023 L168.914175,90.4502266 Z M86.6423604,88.31963 L124.14046,108.669559 L124.14046,69.8817745 L86.6423604,49.5318451 L86.6423604,88.31963 Z M127.782821,69.8817745 L127.782821,108.624034 L165.271815,88.2012635 L165.271815,49.5318451 L127.782821,69.8817745 Z M168.914175,49.4134786 L168.914175,86.2254538 L204.281494,67.0318738 L168.914175,49.4134786 Z M88.6365527,46.4361064 L125.970746,66.6858795 L163.277622,46.4361064 L125.943429,26.1772281 L88.6365527,46.4361064 Z M171.03585,46.4361064 L206.412275,64.0545016 L206.412275,27.206106 L171.03585,46.4361064 Z M129.777013,24.1467877 L167.111207,44.3965609 L204.4454,24.1467877 L167.111207,3.88790947 L129.777013,24.1467877 Z" id="Shape"></path>
                        <path d="M251.092995,133.999986 C250.808635,134.0011 250.527966,133.935616 250.273464,133.808779 L209.142109,113.322273 L209.078368,113.322273 L167.95612,90.9692181 C167.384694,90.6394191 167.036346,90.0263799 167.04553,89.3667181 L167.04553,46.4361064 L167,46.4361064 C167.019649,45.7865191 167.384021,45.196635 167.95612,44.888237 L250.227934,0.218548599 C250.767826,-0.0728495329 251.418164,-0.0728495329 251.958055,0.218548599 L293.098516,22.5442877 C293.290114,22.6475997 293.460125,22.7866874 293.59934,22.9540178 C293.674209,23.0420919 293.74124,23.1365371 293.79967,23.2362763 C293.921657,23.4734733 293.990046,23.7345695 294,24.0011059 L294,109.707542 C294.00001,110.376806 293.632874,110.992142 293.04388,111.310042 L251.958055,133.781463 C251.692283,133.924899 251.395009,133.999994 251.092995,133.999986 Z M213.89539,111.619616 L249.271815,129.238011 L249.271815,92.3531954 L213.89539,111.619616 Z M252.914175,90.4502266 L252.914175,129.119645 L290.412275,108.769716 L290.412275,70.1094023 L252.914175,90.4502266 Z M170.64236,88.31963 L208.14046,108.669559 L208.14046,69.8817745 L170.64236,49.5318451 L170.64236,88.31963 Z M211.782821,69.8817745 L211.782821,108.624034 L249.271815,88.2012635 L249.271815,49.5318451 L211.782821,69.8817745 Z M252.914175,49.4134786 L252.914175,86.2254538 L288.281494,67.0318738 L252.914175,49.4134786 Z M172.636553,46.4361064 L209.970746,66.6858795 L247.277622,46.4361064 L209.943429,26.1772281 L172.636553,46.4361064 Z M255.03585,46.4361064 L290.412275,64.0545016 L290.412275,27.206106 L255.03585,46.4361064 Z M213.777013,24.1467877 L251.111207,44.3965609 L288.4454,24.1467877 L251.111207,3.88790947 L213.777013,24.1467877 Z" id="Shape"></path>
                    </g>
                </g>
            </g>
        </g>
    </g>
</svg>