<?xml version="1.0" encoding="UTF-8"?>
<svg width="405px" height="227px" viewBox="0 0 405 227" version="1.1" xmlns="http://www.w3.org/2000/svg" xmlns:xlink="http://www.w3.org/1999/xlink">
    <!-- Generator: Sketch 49.2 (51160) - http://www.bohemiancoding.com/sketch -->
    <title>3_triblock</title>
    <desc>Created with Sketch.</desc>
    <defs></defs>
    <g id="Page-1" stroke="none" stroke-width="1" fill="none" fill-rule="evenodd">
        <g id="v3" transform="translate(-875.000000, -5284.000000)" fill="#0F52BA" fill-rule="nonzero">
            <g id="ABOUT" transform="translate(-151.000000, 4998.000000)">
                <g id="3_triblock" transform="translate(1026.000000, 286.000000)">
                    <path d="M142.362157,226.999976 C141.88076,227.001864 141.405611,226.890932 140.974762,226.676065 L71.3429411,191.971312 L71.2350326,191.971312 L1.61862766,154.104571 C0.651253646,153.545882 0.0615309707,152.507375 0.0770775077,151.389888 L0.0770775077,78.6641503 L0,78.6641503 C0.0332644726,77.5637301 0.650114164,76.5644489 1.61862766,76.0420135 L140.897684,0.37022785 C141.811673,-0.123409283 142.91264,-0.123409283 143.826629,0.37022785 L213.473865,38.1906963 C213.798225,38.3657099 214.086039,38.6013286 214.321718,38.8847914 C214.448464,39.0339915 214.561942,39.1939844 214.660859,39.3629458 C214.867373,39.7647645 214.983148,40.2070692 215,40.6585899 L215,185.847852 C215.000016,186.981604 214.378487,188.024002 213.381372,188.562534 L143.826629,226.629792 C143.3767,226.872777 142.87344,226.99999 142.362157,226.999976 Z M79.3898329,189.086962 L139.279056,218.933049 L139.279056,156.44907 L79.3898329,189.086962 Z M145.445257,153.225384 L145.445257,218.732533 L208.926292,184.259145 L208.926292,118.76742 L145.445257,153.225384 Z M6.16620062,149.61609 L69.647236,184.089477 L69.647236,118.381812 L6.16620062,83.9084241 L6.16620062,149.61609 Z M75.8134366,118.381812 L75.8134366,184.012356 L139.279056,149.415573 L139.279056,83.9084241 L75.8134366,118.381812 Z M145.445257,83.7079078 L145.445257,146.068493 L205.319065,113.553995 L145.445257,83.7079078 Z M9.54219545,78.6641503 L72.7457518,112.967871 L135.903062,78.6641503 L72.6995053,44.3450058 L9.54219545,78.6641503 Z M149.037069,78.6641503 L208.926292,108.510238 L208.926292,46.0879556 L149.037069,78.6641503 Z M79.1894314,40.9053792 L142.392988,75.2090994 L205.596544,40.9053792 L142.392988,6.5862347 L79.1894314,40.9053792 Z" id="Shape"></path>
                    <path d="M282.362157,226.999976 C281.88076,227.001864 281.405611,226.890932 280.974762,226.676065 L211.342941,191.971312 L211.235033,191.971312 L141.618628,154.104571 C140.651254,153.545882 140.061531,152.507375 140.077078,151.389888 L140.077078,78.6641503 L140,78.6641503 C140.033264,77.5637301 140.650114,76.5644489 141.618628,76.0420135 L280.897684,0.37022785 C281.811673,-0.123409283 282.91264,-0.123409283 283.826629,0.37022785 L353.473865,38.1906963 C353.798225,38.3657099 354.086039,38.6013286 354.321718,38.8847914 C354.448464,39.0339915 354.561942,39.1939844 354.660859,39.3629458 C354.867373,39.7647645 354.983148,40.2070692 355,40.6585899 L355,185.847852 C355.000016,186.981604 354.378487,188.024002 353.381372,188.562534 L283.826629,226.629792 C283.3767,226.872777 282.87344,226.99999 282.362157,226.999976 Z M219.389833,189.086962 L279.279056,218.933049 L279.279056,156.44907 L219.389833,189.086962 Z M285.445257,153.225384 L285.445257,218.732533 L348.926292,184.259145 L348.926292,118.76742 L285.445257,153.225384 Z M146.166201,149.61609 L209.647236,184.089477 L209.647236,118.381812 L146.166201,83.9084241 L146.166201,149.61609 Z M215.813437,118.381812 L215.813437,184.012356 L279.279056,149.415573 L279.279056,83.9084241 L215.813437,118.381812 Z M285.445257,83.7079078 L285.445257,146.068493 L345.319065,113.553995 L285.445257,83.7079078 Z M149.542195,78.6641503 L212.745752,112.967871 L275.903062,78.6641503 L212.699505,44.3450058 L149.542195,78.6641503 Z M289.037069,78.6641503 L348.926292,108.510238 L348.926292,46.0879556 L289.037069,78.6641503 Z M219.189431,40.9053792 L282.392988,75.2090994 L345.596544,40.9053792 L282.392988,6.5862347 L219.189431,40.9053792 Z" id="Shape"></path>
                    <path d="M424.362157,226.999976 C423.88076,227.001864 423.405611,226.890932 422.974762,226.676065 L353.342941,191.971312 L353.235033,191.971312 L283.618628,154.104571 C282.651254,153.545882 282.061531,152.507375 282.077078,151.389888 L282.077078,78.6641503 L282,78.6641503 C282.033264,77.5637301 282.650114,76.5644489 283.618628,76.0420135 L422.897684,0.37022785 C423.811673,-0.123409283 424.91264,-0.123409283 425.826629,0.37022785 L495.473865,38.1906963 C495.798225,38.3657099 496.086039,38.6013286 496.321718,38.8847914 C496.448464,39.0339915 496.561942,39.1939844 496.660859,39.3629458 C496.867373,39.7647645 496.983148,40.2070692 497,40.6585899 L497,185.847852 C497.000016,186.981604 496.378487,188.024002 495.381372,188.562534 L425.826629,226.629792 C425.3767,226.872777 424.87344,226.99999 424.362157,226.999976 Z M361.389833,189.086962 L421.279056,218.933049 L421.279056,156.44907 L361.389833,189.086962 Z M427.445257,153.225384 L427.445257,218.732533 L490.926292,184.259145 L490.926292,118.76742 L427.445257,153.225384 Z M288.166201,149.61609 L351.647236,184.089477 L351.647236,118.381812 L288.166201,83.9084241 L288.166201,149.61609 Z M357.813437,118.381812 L357.813437,184.012356 L421.279056,149.415573 L421.279056,83.9084241 L357.813437,118.381812 Z M427.445257,83.7079078 L427.445257,146.068493 L487.319065,113.553995 L427.445257,83.7079078 Z M291.542195,78.6641503 L354.745752,112.967871 L417.903062,78.6641503 L354.699505,44.3450058 L291.542195,78.6641503 Z M431.037069,78.6641503 L490.926292,108.510238 L490.926292,46.0879556 L431.037069,78.6641503 Z M361.189431,40.9053792 L424.392988,75.2090994 L487.596544,40.9053792 L424.392988,6.5862347 L361.189431,40.9053792 Z" id="Shape"></path>
                </g>
            </g>
        </g>
    </g>
</svg>