<?xml version="1.0" encoding="UTF-8"?>
<svg width="64px" height="51px" viewBox="0 0 64 51" version="1.1" xmlns="http://www.w3.org/2000/svg" xmlns:xlink="http://www.w3.org/1999/xlink">
    <!-- Generator: Sketch 49.2 (51160) - http://www.bohemiancoding.com/sketch -->
    <title>balance-scale</title>
    <desc>Created with Sketch.</desc>
    <defs></defs>
    <g id="Page-1" stroke="none" stroke-width="1" fill="none" fill-rule="evenodd">
        <g id="v3" transform="translate(-264.000000, -6577.000000)" fill="#FFFFFF" fill-rule="nonzero">
            <g id="OUR-REPORTS-CONSIDER" transform="translate(0.000000, 5820.000000)">
                <g id="balance-scale" transform="translate(264.000000, 757.000000)">
                    <path d="M35.2,44.625 L52,44.625 C53.3255,44.625 54.4,45.6953027 54.4,47.015625 L54.4,48.609375 C54.4,49.9296973 53.3255,51 52,51 L12,51 C10.6745,51 9.6,49.9296973 9.6,48.609375 L9.6,47.015625 C9.6,45.6953027 10.6745,44.625 12,44.625 L28.8,44.625 L28.8,15.2725078 C26.4469,14.248125 24.6836,12.1302305 24.1603,9.5625 L12,9.5625 C10.6745,9.5625 9.6,8.49219727 9.6,7.171875 L9.6,5.578125 C9.6,4.25780273 10.6745,3.1875 12,3.1875 L25.5999,3.1875 C27.0594,1.25208984 29.3828,0 32,0 C34.6172,0 36.9406,1.25208984 38.4001,3.1875 L52,3.1875 C53.3255,3.1875 54.4,4.25780273 54.4,5.578125 L54.4,7.171875 C54.4,8.49219727 53.3255,9.5625 52,9.5625 L39.8397,9.5625 C39.3164,12.1302305 37.5531,14.248125 35.2,15.2725078 L35.2,44.625 Z M63.9981,33.46875 C63.9982,31.8568711 64.1323,32.5995586 55.4933,15.3890508 C53.7286,11.8734375 48.6747,11.8670625 46.9068,15.3890508 C38.194,32.746582 38.4019,31.9079707 38.4019,33.46875 L38.4,33.46875 C38.4,37.869791 44.1308,41.4375 51.2,41.4375 C58.2692,41.4375 64,37.869791 64,33.46875 L63.9981,33.46875 Z M51.2,17.53125 L58.4,31.875 L44,31.875 L51.2,17.53125 Z M25.5981,33.46875 C25.5982,31.8568711 25.7323,32.5995586 17.0933,15.3890508 C15.3286,11.8734375 10.2747,11.8670625 8.5068,15.3890508 C-0.206,32.746582 0.0019,31.9079707 0.0019,33.46875 L0,33.46875 C0,37.869791 5.7308,41.4375 12.8,41.4375 C19.8692,41.4375 25.6,37.869791 25.6,33.46875 L25.5981,33.46875 Z M12.8,17.53125 L20,31.875 L5.6,31.875 L12.8,17.53125 Z" id="Shape"></path>
                </g>
            </g>
        </g>
    </g>
</svg>