<?xml version="1.0" encoding="UTF-8"?>
<svg width="63px" height="47px" viewBox="0 0 63 47" version="1.1" xmlns="http://www.w3.org/2000/svg" xmlns:xlink="http://www.w3.org/1999/xlink">
    <!-- Generator: Sketch 49.2 (51160) - http://www.bohemiancoding.com/sketch -->
    <title>chart-line</title>
    <desc>Created with Sketch.</desc>
    <defs></defs>
    <g id="Page-1" stroke="none" stroke-width="1" fill="none" fill-rule="evenodd">
        <g id="v3" transform="translate(-267.000000, -6118.000000)" fill="#FFFFFF" fill-rule="nonzero">
            <g id="OUR-REPORTS-CONSIDER" transform="translate(0.000000, 5820.000000)">
                <g id="chart-line" transform="translate(267.000000, 298.000000)">
                    <path d="M61.5234375,39.1666667 C62.3355469,39.1666667 63,39.8276042 63,40.6354167 L63,45.53125 C63,46.3390625 62.3355469,47 61.5234375,47 L1.4765625,47 C0.664453125,47 0,46.3390625 0,45.53125 L0,1.46875 C0,0.6609375 0.664453125,0 1.4765625,0 L6.3984375,0 C7.21054688,0 7.875,0.6609375 7.875,1.46875 L7.875,39.1666667 L61.5234375,39.1666667 Z M56.109375,3.91666667 L42.328125,3.91666667 C39.6949219,3.91666667 38.3783203,7.08671875 40.2363281,8.93489583 L44.2845703,12.9617187 L35.4251953,21.884375 L28.5837891,15.0791667 C28.0054687,14.5039062 27.0826172,14.5039062 26.5042969,15.0791667 L11.8617187,29.4973958 C11.2833984,30.0604167 11.2710937,30.990625 11.8371094,31.5658854 L15.3439453,35.1643229 C15.9222656,35.7518229 16.8697266,35.7640625 17.4480469,35.1765625 L27.5501953,25.1278646 L34.3792969,31.9208333 C34.9576172,32.4960937 35.8927734,32.4960937 36.4710937,31.9208333 L49.9078125,18.5552083 L54.0175781,22.6432292 C55.8755859,24.4914062 59.0625,23.1817708 59.0625,20.5625 L59.0625,6.85416667 C59.0625,5.22630208 57.7458984,3.91666667 56.109375,3.91666667 Z" id="Shape"></path>
                </g>
            </g>
        </g>
    </g>
</svg>