<?xml version="1.0" encoding="UTF-8"?>
<svg width="46px" height="42px" viewBox="0 0 46 42" version="1.1" xmlns="http://www.w3.org/2000/svg" xmlns:xlink="http://www.w3.org/1999/xlink">
    <!-- Generator: Sketch 49.2 (51160) - http://www.bohemiancoding.com/sketch -->
    <title>chart-pie</title>
    <desc>Created with Sketch.</desc>
    <defs></defs>
    <g id="Page-1" stroke="none" stroke-width="1" fill="none" fill-rule="evenodd">
        <g id="v3" transform="translate(-616.000000, -6582.000000)" fill="#FFFFFF" fill-rule="nonzero">
            <g id="OUR-REPORTS-CONSIDER" transform="translate(0.000000, 5820.000000)">
                <g id="chart-pie" transform="translate(616.000000, 762.000000)">
                    <path d="M23.4597603,0.985907522 L23.4597603,19.6749387 L42.0076153,19.6749387 C42.5696716,19.6749387 43.0095416,19.1988896 42.9851044,18.6325553 C42.4637769,8.58627767 34.4728038,0.526273906 24.4942695,0.000978345111 C23.9322133,-0.0236448843 23.4597603,0.419573245 23.4597603,0.985907522 Z M45.02154,23.6146554 C45.5835962,23.6146554 46.0234663,24.0907045 45.999029,24.6570387 C45.7709483,29.0235581 44.1092168,33.3244155 41.0138348,36.7880831 C40.6391307,37.206678 39.9874713,37.2313012 39.5883299,36.8291218 L26.4736849,23.6146554 L45.02154,23.6146554 Z M32.664449,35.5158829 C33.0554446,35.9098546 33.0472989,36.566474 32.631866,36.9358225 C29.1617798,40.0875958 24.5675812,42 19.5335125,42 C8.76484128,41.9917923 -0.016268852,33.1192219 2.26324705e-05,22.2603777 C0.0163141169,11.7462588 8.21093081,3.1691672 18.5152947,2.62745615 C19.077351,2.59462518 19.549804,3.04605105 19.549804,3.61238533 L19.549804,22.3014165 L32.664449,35.5158829 Z" id="Shape"></path>
                </g>
            </g>
        </g>
    </g>
</svg>