<?xml version="1.0" encoding="UTF-8"?>
<svg width="48px" height="50px" viewBox="0 0 48 50" version="1.1" xmlns="http://www.w3.org/2000/svg" xmlns:xlink="http://www.w3.org/1999/xlink">
    <!-- Generator: Sketch 49.2 (51160) - http://www.bohemiancoding.com/sketch -->
    <title>cog</title>
    <desc>Created with Sketch.</desc>
    <defs></defs>
    <g id="Page-1" stroke="none" stroke-width="1" fill="none" fill-rule="evenodd">
        <g id="v3" transform="translate(-616.000000, -6117.000000)" fill="#FFFFFF" fill-rule="nonzero">
            <g id="OUR-REPORTS-CONSIDER" transform="translate(0.000000, 5820.000000)">
                <g id="cog" transform="translate(616.000000, 297.000000)">
                    <path d="M43.0849009,28.5382976 L47.3930251,31.0180294 C47.8850384,31.301194 48.1134046,31.8867772 47.9448847,32.4278041 C46.8257995,36.0207387 44.9151663,39.2666983 42.4162804,41.9626593 C42.0311119,42.3784345 41.4085347,42.4727796 40.9168882,42.1898765 L36.611999,39.710548 C34.8007455,41.2580811 32.7183985,42.4586645 30.4697681,43.2518698 L30.4697681,48.2097204 C30.4697764,48.7761022 30.0759993,49.2667973 29.5218311,49.3909674 C25.9880695,50.1822961 22.1927836,50.2232234 18.4806961,49.3916731 C17.9257027,49.267379 17.5301308,48.7771585 17.5301308,48.209922 L17.5301308,43.2518698 C15.2814789,42.458711 13.1991237,41.2581228 11.3878999,39.710548 L7.0830107,42.1898765 C6.59136424,42.4727796 5.96878701,42.3784345 5.58361852,41.9626593 C3.08483374,39.2666983 1.17409941,36.0207387 0.0550142256,32.4278041 C-0.113505648,31.886878 0.114860515,31.3012948 0.606873847,31.0180294 L4.91509907,28.5382976 C4.4823779,26.1991996 4.4823779,23.8009012 4.91509907,21.4618032 L0.606974939,18.9820714 C0.114961607,18.6989068 -0.113404556,18.1133236 0.0551153173,17.5722967 C1.1742005,13.9793621 3.08483374,10.7334025 5.58371961,8.03744146 C5.96888811,7.62166627 6.59146534,7.52732121 7.08311179,7.81022428 L11.388001,10.2895528 C13.1992545,8.74201973 15.2816015,7.54143626 17.5302319,6.74823096 L17.5302319,1.79027961 C17.5302236,1.22389777 17.9240007,0.733202692 18.4781689,0.609032551 C22.0119305,-0.182296122 25.8072164,-0.223223439 29.5193039,0.608326908 C30.0742973,0.732620953 30.4698692,1.22284151 30.4698692,1.790078 L30.4698692,6.74813016 C32.7185211,7.54128904 34.8008763,8.74187721 36.6121001,10.289452 L40.9169893,7.81012348 C41.4086358,7.5272204 42.031213,7.62156546 42.4163815,8.03734065 C44.9151663,10.7333017 46.8259006,13.9792613 47.9449858,17.5721959 C48.1135056,18.113122 47.8851395,18.6987052 47.3931262,18.9819706 L43.0849009,21.4617024 C43.5176232,23.8008342 43.5176232,26.1991658 43.0849009,28.5382976 Z M32.0873365,25 C32.0873365,20.5532369 28.4593573,16.935504 24,16.935504 C19.5406427,16.935504 15.9126635,20.5532369 15.9126635,25 C15.9126635,29.4467631 19.5406427,33.064496 24,33.064496 C28.4593573,33.064496 32.0873365,29.4467631 32.0873365,25 Z" id="Shape"></path>
                </g>
            </g>
        </g>
    </g>
</svg>