<?xml version="1.0" encoding="UTF-8"?>
<svg width="56px" height="56px" viewBox="0 0 56 56" version="1.1" xmlns="http://www.w3.org/2000/svg" xmlns:xlink="http://www.w3.org/1999/xlink">
    <!-- Generator: Sketch 49.2 (51160) - http://www.bohemiancoding.com/sketch -->
    <title>compass</title>
    <desc>Created with Sketch.</desc>
    <defs></defs>
    <g id="Page-1" stroke="none" stroke-width="1" fill="none" fill-rule="evenodd">
        <g id="v3" transform="translate(-950.000000, -6113.000000)" fill="#FFFFFF" fill-rule="nonzero">
            <g id="OUR-REPORTS-CONSIDER" transform="translate(0.000000, 5820.000000)">
                <g id="compass" transform="translate(950.000000, 293.000000)">
                    <path d="M28,0 C12.5359839,0 0,12.5359839 0,28 C0,43.4640161 12.5359839,56 28,56 C43.4640161,56 56,43.4640161 56,28 C56,12.5359839 43.4640161,0 28,0 Z M27.5,50 C15.06515,50 5,39.9367625 5,27.5 C5,15.0652625 15.0632375,5 27.5,5 C39.93485,5 50,15.0632375 50,27.5 C50,39.93485 39.9367625,50 27.5,50 Z M38.9170453,15.3526961 L35.1121624,30.8950337 C34.9884356,31.40025 34.7202933,31.8595689 34.3397571,32.2181387 L22.6327761,43.2482247 C20.6819167,45.0861776 17.4362635,43.2971826 18.0841167,40.6509727 L21.8889996,25.1086352 C22.012678,24.6033997 22.2808277,24.1440681 22.6614048,23.7855302 L34.3686139,12.7554441 C36.3401179,10.8975246 39.5575987,12.735703 38.9170453,15.3526961 Z M27.5,24 C25.5670156,24 24,25.5670156 24,27.5 C24,29.4329844 25.5670156,31 27.5,31 C29.4329844,31 31,29.4329844 31,27.5 C31,25.5670156 29.4329844,24 27.5,24 Z" id="Shape"></path>
                </g>
            </g>
        </g>
    </g>
</svg>