<?xml version="1.0" encoding="UTF-8"?>
<svg width="1269px" height="620px" viewBox="0 0 1269 620" version="1.1" xmlns="http://www.w3.org/2000/svg" xmlns:xlink="http://www.w3.org/1999/xlink">
    <!-- Generator: Sketch 49.2 (51160) - http://www.bohemiancoding.com/sketch -->
    <title>graph expo</title>
    <desc>Created with Sketch.</desc>
    <defs></defs>
    <g id="Page-1" stroke="none" stroke-width="1" fill="none" fill-rule="evenodd" opacity="0.287420743" stroke-linecap="square">
        <g id="v3" transform="translate(-5.000000, -1751.000000)" stroke="#979797" stroke-width="5">
            <g id="SUBSCRIBE" transform="translate(0.000000, 1712.000000)">
                <g id="graph-expo" transform="translate(7.000000, 42.000000)">
                    <path d="M15,613 L15,572" id="Line-3"></path>
                    <path d="M186,613 L186,572" id="Line-3-Copy-12"></path>
                    <path d="M29,613 L29,541.5" id="Line-3-Copy-2"></path>
                    <path d="M200,613 L200,541.5" id="Line-3-Copy-13"></path>
                    <path d="M58,613 L58,555.5" id="Line-3-Copy-4"></path>
                    <path d="M229,613 L229,555.5" id="Line-3-Copy-14"></path>
                    <path d="M72,613 L72,514.5" id="Line-3-Copy-5"></path>
                    <path d="M243,613 L243,514.5" id="Line-3-Copy-15"></path>
                    <path d="M86,613.478516 L86,550" id="Line-3-Copy-6"></path>
                    <path d="M257,613 L257,493.5" id="Line-3-Copy-16"></path>
                    <path d="M100,613.759766 L100,524" id="Line-3-Copy-7"></path>
                    <path d="M271,613 L271,478.5" id="Line-3-Copy-17"></path>
                    <path d="M114,613 L114,540.5" id="Line-3-Copy-8"></path>
                    <path d="M285,613 L285,540.5" id="Line-3-Copy-18"></path>
                    <path d="M128,613 L128,557.5" id="Line-3-Copy-9"></path>
                    <path d="M299,613 L299,557.5" id="Line-3-Copy-19"></path>
                    <path d="M142,613 L142,532.5" id="Line-3-Copy-10"></path>
                    <path d="M313,613 L313,532.5" id="Line-3-Copy-20"></path>
                    <path d="M156,613.025391 L156,554" id="Line-3-Copy-11"></path>
                    <path d="M327,613 L327,454.436133" id="Line-3-Copy-21"></path>
                    <path d="M415,613 L415,454.436133" id="Line-3-Copy-30"></path>
                    <path d="M342,613 L342,480.5" id="Line-3-Copy-25"></path>
                    <path d="M430,613 L430,480.5" id="Line-3-Copy-31"></path>
                    <path d="M356,613 L356,407.499392" id="Line-3-Copy-26"></path>
                    <path d="M444,613 L444,446.5" id="Line-3-Copy-32"></path>
                    <path d="M371,613 L371,378.456827" id="Line-3-Copy-27"></path>
                    <path d="M459,613 L459,378.456827" id="Line-3-Copy-33"></path>
                    <path d="M386,613.097656 L386.5,365" id="Line-3-Copy-28"></path>
                    <path d="M474,613 L474,409.5" id="Line-3-Copy-34"></path>
                    <path d="M503.666667,613 L503.666667,340.5" id="Line-3-Copy-36"></path>
                    <path d="M682.666667,613 L682.666667,340.5" id="Line-3-Copy-48"></path>
                    <path d="M593,613 L593,243.5" id="Line-3-Copy-42"></path>
                    <path d="M772,613 L772,243.5" id="Line-3-Copy-49"></path>
                    <path d="M906,613 L906,243.5" id="Line-3-Copy-60"></path>
                    <path d="M548.666667,613 L548.666667,301.453135" id="Line-3-Copy-39"></path>
                    <path d="M727.666667,613 L727.666667,301.453135" id="Line-3-Copy-50"></path>
                    <path d="M861.666667,613 L861.666667,301.453135" id="Line-3-Copy-61"></path>
                    <path d="M638,613 L638,328.5" id="Line-3-Copy-43"></path>
                    <path d="M817,613 L817,328.5" id="Line-3-Copy-51"></path>
                    <path d="M951,613 L951,328.5" id="Line-3-Copy-62"></path>
                    <path d="M518.666667,613 L518.666667,356.5" id="Line-3-Copy-37"></path>
                    <path d="M697.666667,613 L697.666667,356.5" id="Line-3-Copy-52"></path>
                    <path d="M608,613 L608,255.5" id="Line-3-Copy-44"></path>
                    <path d="M787,613 L787,255.5" id="Line-3-Copy-53"></path>
                    <path d="M921,613 L921,255.5" id="Line-3-Copy-63"></path>
                    <path d="M563.666667,613 L563.666667,301.453135" id="Line-3-Copy-40"></path>
                    <path d="M742.666667,613 L742.666667,291.5" id="Line-3-Copy-54"></path>
                    <path d="M876.666667,613 L876.666667,342.5" id="Line-3-Copy-64"></path>
                    <path d="M653,613 L653,194.5" id="Line-3-Copy-45"></path>
                    <path d="M832,612.675781 L832,282.5" id="Line-3-Copy-55"></path>
                    <path d="M966,612.675781 L966,152" id="Line-3-Copy-65"></path>
                    <path d="M533.666667,613 L533.666667,336.5" id="Line-3-Copy-38"></path>
                    <path d="M712.666667,613 L712.666667,336.5" id="Line-3-Copy-56"></path>
                    <path d="M623,613 L623,216.5" id="Line-3-Copy-46"></path>
                    <path d="M802,613 L802,216.5" id="Line-3-Copy-57"></path>
                    <path d="M936,613 L936,216.5" id="Line-3-Copy-66"></path>
                    <path d="M578,613 L578,271.496706" id="Line-3-Copy-41"></path>
                    <path d="M757,613 L757,271.496706" id="Line-3-Copy-58"></path>
                    <path d="M891,613 L891,271.496706" id="Line-3-Copy-67"></path>
                    <path d="M668,613 L668,224.5" id="Line-3-Copy-47"></path>
                    <path d="M847,613.082031 L847,207.5" id="Line-3-Copy-59"></path>
                    <path d="M981,613.082031 L981,127.5" id="Line-3-Copy-68"></path>
                    <path d="M1009,613.082031 L1009,116.5" id="Line-3-Copy-70"></path>
                    <path d="M1066,613.082031 L1066,116.5" id="Line-3-Copy-74"></path>
                    <path d="M1136,613.082031 L1136,116.5" id="Line-3-Copy-79"></path>
                    <path d="M995,613.082031 L995,122.5" id="Line-3-Copy-69"></path>
                    <path d="M1023,613.144531 L1023,111" id="Line-3-Copy-71"></path>
                    <path d="M1080,613.144531 L1080,111" id="Line-3-Copy-75"></path>
                    <path d="M1150,613.144531 L1150,73.5" id="Line-3-Copy-80"></path>
                    <path d="M1037,613.144531 L1037,98.5" id="Line-3-Copy-72"></path>
                    <path d="M1094,613.144531 L1094,98.5" id="Line-3-Copy-76"></path>
                    <path d="M1164,613.144531 L1164,53.5" id="Line-3-Copy-81"></path>
                    <path d="M1051,613.144531 L1051,180.499711" id="Line-3-Copy-73"></path>
                    <path d="M1108,613.199219 L1108,64" id="Line-3-Copy-77"></path>
                    <path d="M1178,613.199219 L1178,29.5" id="Line-3-Copy-82"></path>
                    <path d="M1122,613.199219 L1122,83.5" id="Line-3-Copy-78"></path>
                    <path d="M1192,613.199219 L1192,64.5" id="Line-3-Copy-83"></path>
                    <path d="M1206,612.90625 L1206,95" id="Line-3-Copy-84"></path>
                    <path d="M1220,612.90625 L1220,77.5" id="Line-3-Copy-85"></path>
                    <path d="M401,613 L401,469.5" id="Line-3-Copy-29"></path>
                    <path d="M489,613 L489,469.5" id="Line-3-Copy-35"></path>
                    <path d="M1234,613 L1234,0.49489798" id="Line-3-Copy-24"></path>
                    <path d="M1249,613 L1249,33.4825283" id="Line-3-Copy-86"></path>
                    <path d="M1264,613 L1264,10.5" id="Line-3-Copy-87"></path>
                    <path d="M43,613 L43,529.498503" id="Line-3-Copy-3"></path>
                    <path d="M214,613 L214,529.498503" id="Line-3-Copy-22"></path>
                    <path d="M1,612.892578 L1,587" id="Line-3-Copy"></path>
                    <path d="M171,612.892578 L171,587" id="Line-3-Copy-23"></path>
                </g>
            </g>
        </g>
    </g>
</svg>