<?xml version="1.0" encoding="UTF-8"?>
<svg width="457px" height="662px" viewBox="0 0 457 662" version="1.1" xmlns="http://www.w3.org/2000/svg" xmlns:xlink="http://www.w3.org/1999/xlink">
    <!-- Generator: Sketch 49.2 (51160) - http://www.bohemiancoding.com/sketch -->
    <title>graphic_jumbotron</title>
    <desc>Created with Sketch.</desc>
    <defs></defs>
    <g id="Page-1" stroke="none" stroke-width="1" fill="none" fill-rule="evenodd">
        <g id="v3" transform="translate(-823.000000, -248.000000)">
            <g id="JUMBOTRON" transform="translate(0.000000, 160.000000)">
                <g id="graphic_jumbotron" transform="translate(824.000000, 88.000000)">
                    <polygon id="Fill-1" fill="#666666" points="413 372 367 345.500343 367 292.500343 413 266 459 292.500343 459 345.500343"></polygon>
                    <polygon id="Fill-2" fill="#0F52BA" points="138 266 92 239.499657 92 186.499657 138 160 184 186.499657 184 239.499657"></polygon>
                    <polygon id="Fill-3" fill="#0A3983" points="184 345 138 318.499657 138 265.499657 184 239 230 265.499657 230 318.499657"></polygon>
                    <polygon id="Fill-4" fill="#333333" points="230 583 184 556.500343 184 503.499657 230 477 276 503.499657 276 556.500343"></polygon>
                    <polygon id="Fill-5" fill="#444444" points="275 504 229 477.499657 229 424.499657 275 398 321 424.499657 321 477.499657"></polygon>
                    <polygon id="Fill-6" fill="#444444" points="459 186 413 159.499657 413 106.499657 459 80 505 106.499657 505 159.499657"></polygon>
                    <polygon id="Fill-7" fill="#666666" points="138 425 92 398.499657 92 345.499657 138 319 184 345.499657 184 398.499657"></polygon>
                    <polygon id="Fill-8" fill="#166BEE" points="230 424 184 397.499657 184 344.499657 230 318 276 344.499657 276 397.499657"></polygon>
                    <polygon id="Fill-9" fill="#0F52BA" points="276 345 230 318.499657 230 265.499657 276 239 322 265.499657 322 318.499657"></polygon>
                    <polygon id="Fill-10" fill="#0A3983" points="276 239 230 212.499657 230 159.499657 276 133 322 159.499657 322 212.499657"></polygon>
                    <polygon id="Fill-11" fill="#166BEE" points="276 186 230 159.499657 230 106.499657 276 80 322 106.499657 322 159.499657"></polygon>
                    <polygon id="Fill-12" fill="#0F52BA" points="321 266 275 239.499657 275 186.499657 321 160 367 186.499657 367 239.499657"></polygon>
                    <polygon id="Fill-13" fill="#166BEE" points="366.999656 292 321 265.499657 321 212.499657 366.999656 186 413 212.499657 413 265.499657"></polygon>
                    <polygon id="Fill-14" fill="#0A3983" points="367 186 321 159.499657 321 106.499657 367 80 413 106.499657 413 159.499657"></polygon>
                    <polygon id="Fill-15" fill="#0F52BA" points="184 504 138 477.499657 138 424.499657 184 398 230 424.499657 230 477.499657"></polygon>
                    <g id="Group-20" transform="translate(0.000000, 160.000000)" stroke="#FFFFFF">
                        <polygon id="Stroke-16" points="46.3711778 105.785265 0.344444444 79.4056258 0.344444444 26.6456645 46.3711778 0.265341935 92.3979111 26.6456645 92.3979111 79.4056258"></polygon>
                        <polyline id="Stroke-18" points="0.66464 26.6455961 46.37104 53.0252348 92.07744 26.6455961"></polyline>
                    </g>
                    <path d="M46,266 L46,213" id="Stroke-21" stroke="#FFFFFF"></path>
                    <polygon id="Stroke-22" stroke="#FFFFFF" points="138 266 92 239.500343 92 186.500343 138 160 184 186.500343 184 239.500343"></polygon>
                    <polyline id="Stroke-23" stroke="#FFFFFF" points="92 186 137.5 212 183 186"></polyline>
                    <path d="M138,266 L138,213" id="Stroke-24" stroke="#FFFFFF"></path>
                    <polygon id="Stroke-25" stroke="#FFFFFF" points="92 345 46 318.499657 46 265.499657 92 239 138 265.499657 138 318.499657"></polygon>
                    <polyline id="Stroke-26" stroke="#FFFFFF" points="46 266 91.5 292 137 266"></polyline>
                    <path d="M92,345 L92,292" id="Stroke-27" stroke="#FFFFFF"></path>
                    <polygon id="Stroke-28" stroke="#FFFFFF" points="92 186 46 159.499657 46 106.499657 92 80 138 106.499657 138 159.499657"></polygon>
                    <polyline id="Stroke-29" stroke="#FFFFFF" points="46 107 91.5 133 137 107"></polyline>
                    <path d="M92,186 L92,133" id="Stroke-30" stroke="#FFFFFF"></path>
                    <polygon id="Stroke-31" stroke="#FFFFFF" points="230 266 184 239.500343 184 186.500343 230 160 276 186.500343 276 239.500343"></polygon>
                    <polyline id="Stroke-32" stroke="#FFFFFF" points="184 186 229.5 212 275 186"></polyline>
                    <path d="M229,266 L229,213" id="Stroke-33" stroke="#FFFFFF"></path>
                    <polygon id="Stroke-34" stroke="#FFFFFF" points="184 186 138 159.499657 138 106.499657 184 80 230 106.499657 230 159.499657"></polygon>
                    <polyline id="Stroke-35" stroke="#FFFFFF" points="138 107 183.5 133 229 107"></polyline>
                    <path d="M184,186 L184,133" id="Stroke-36" stroke="#FFFFFF"></path>
                    <polygon id="Stroke-37" stroke="#FFFFFF" points="184 345 138 318.499657 138 265.499657 184 239 230 265.499657 230 318.499657"></polygon>
                    <polyline id="Stroke-38" stroke="#FFFFFF" points="138 266 183.5 292 229 266"></polyline>
                    <path d="M184,345 L184,292" id="Stroke-39" stroke="#FFFFFF"></path>
                    <polygon id="Stroke-40" stroke="#FFFFFF" points="321 266 275 239.500343 275 186.500343 321 160 367 186.500343 367 239.500343"></polygon>
                    <polyline id="Stroke-41" stroke="#FFFFFF" points="276 186 321.5 212 367 186"></polyline>
                    <path d="M321,266 L321,213" id="Stroke-42" stroke="#FFFFFF"></path>
                    <polygon id="Stroke-43" stroke="#FFFFFF" points="275 345 229 318.499657 229 265.499657 275 239 321 265.499657 321 318.499657"></polygon>
                    <polyline id="Stroke-44" stroke="#FFFFFF" points="230 266 275.5 292 321 266"></polyline>
                    <path d="M275,345 L275,292" id="Stroke-45" stroke="#FFFFFF"></path>
                    <polygon id="Stroke-46" stroke="#FFFFFF" points="275 186 229 159.499657 229 106.499657 275 80 321 106.499657 321 159.499657"></polygon>
                    <polyline id="Stroke-47" stroke="#FFFFFF" points="230 107 275.5 133 321 107"></polyline>
                    <path d="M275,186 L275,133" id="Stroke-48" stroke="#FFFFFF"></path>
                    <polygon id="Stroke-49" stroke="#FFFFFF" points="413 266 367 239.500343 367 186.500343 413 160 459 186.500343 459 239.500343"></polygon>
                    <polyline id="Stroke-50" stroke="#FFFFFF" points="367 186 412.5 212 458 186"></polyline>
                    <path d="M413,266 L413,213" id="Stroke-51" stroke="#FFFFFF"></path>
                    <polygon id="Stroke-52" stroke="#FFFFFF" points="367 186 321 159.499657 321 106.499657 367 80 413 106.499657 413 159.499657"></polygon>
                    <polyline id="Stroke-53" stroke="#FFFFFF" points="321 107 366.5 133 412 107"></polyline>
                    <path d="M367,186 L367,133" id="Stroke-54" stroke="#FFFFFF"></path>
                    <polygon id="Stroke-55" stroke="#FFFFFF" points="367 345 321 318.499657 321 265.499657 367 239 413 265.499657 413 318.499657"></polygon>
                    <polyline id="Stroke-56" stroke="#FFFFFF" points="321 266 366.5 292 412 266"></polyline>
                    <path d="M367,345 L367,292" id="Stroke-57" stroke="#FFFFFF"></path>
                    <g id="Group-62" transform="translate(0.000000, 318.000000)" stroke="#FFFFFF">
                        <polygon id="Stroke-58" points="46.3711778 106.438044 0.344444444 79.9802365 0.344444444 27.0639353 46.3711778 0.605441667 92.3979111 27.0639353 92.3979111 79.9802365"></polygon>
                        <polyline id="Stroke-60" points="0.66464 27.0637981 46.37104 53.5216058 92.07744 27.0637981"></polyline>
                    </g>
                    <path d="M46,424 L46,371" id="Stroke-63" stroke="#FFFFFF"></path>
                    <polygon id="Stroke-64" stroke="#FFFFFF" points="138 425 92 398.500343 92 345.500343 138 319 184 345.500343 184 398.500343"></polygon>
                    <polyline id="Stroke-65" stroke="#FFFFFF" points="92 345 137.5 371 183 345"></polyline>
                    <path d="M138,424 L138,371" id="Stroke-66" stroke="#FFFFFF"></path>
                    <polygon id="Stroke-67" stroke="#FFFFFF" points="92 504 46 477.499657 46 424.499657 92 398 138 424.499657 138 477.499657"></polygon>
                    <polyline id="Stroke-68" stroke="#FFFFFF" points="46 424 91.5 450 137 424"></polyline>
                    <path d="M92,504 L92,451" id="Stroke-69" stroke="#FFFFFF"></path>
                    <polygon id="Stroke-70" stroke="#FFFFFF" points="230 425 184 398.500343 184 345.500343 230 319 276 345.500343 276 398.500343"></polygon>
                    <polyline id="Stroke-71" stroke="#FFFFFF" points="184 345 229.5 371 275 345"></polyline>
                    <path d="M229,424 L229,371" id="Stroke-72" stroke="#FFFFFF"></path>
                    <polygon id="Stroke-73" stroke="#FFFFFF" points="184 504 138 477.499657 138 424.499657 184 398 230 424.499657 230 477.499657"></polygon>
                    <polyline id="Stroke-74" stroke="#FFFFFF" points="138 424 183.5 450 229 424"></polyline>
                    <path d="M184,504 L184,451" id="Stroke-75" stroke="#FFFFFF"></path>
                    <polygon id="Stroke-76" stroke="#FFFFFF" points="321 425 275 398.500343 275 345.500343 321 319 367 345.500343 367 398.500343"></polygon>
                    <polyline id="Stroke-77" stroke="#FFFFFF" points="276 345 321.5 371 367 345"></polyline>
                    <path d="M321,424 L321,371" id="Stroke-78" stroke="#FFFFFF"></path>
                    <polygon id="Stroke-79" stroke="#FFFFFF" points="275 504 229 477.499657 229 424.499657 275 398 321 424.499657 321 477.499657"></polygon>
                    <polyline id="Stroke-80" stroke="#FFFFFF" points="230 424 275.5 450 321 424"></polyline>
                    <path d="M275,504 L275,451" id="Stroke-81" stroke="#FFFFFF"></path>
                    <polygon id="Stroke-82" stroke="#FFFFFF" points="413 425 367 398.500343 367 345.500343 413 319 459 345.500343 459 398.500343"></polygon>
                    <polyline id="Stroke-83" stroke="#FFFFFF" points="367 345 412.5 371 458 345"></polyline>
                    <path d="M413,424 L413,371" id="Stroke-84" stroke="#FFFFFF"></path>
                    <polygon id="Stroke-85" stroke="#FFFFFF" points="367 504 321 477.499657 321 424.499657 367 398 413 424.499657 413 477.499657"></polygon>
                    <polyline id="Stroke-86" stroke="#FFFFFF" points="321 424 366.5 450 412 424"></polyline>
                    <path d="M367,504 L367,451" id="Stroke-87" stroke="#FFFFFF"></path>
                    <polygon id="Stroke-91" stroke="#FFFFFF" points="230 107 184 80.5003435 184 27.5003435 230 1 276 27.5003435 276 80.5003435"></polygon>
                    <polyline id="Stroke-93" stroke="#FFFFFF" points="184 28 229.5 54 275 28"></polyline>
                    <path d="M229,107 L229,54" id="Stroke-94" stroke="#FFFFFF"></path>
                    <polygon id="Stroke-95" stroke="#FFFFFF" points="321 107 275 80.5003435 275 27.5003435 321 1 367 27.5003435 367 80.5003435"></polygon>
                    <polyline id="Stroke-97" stroke="#FFFFFF" points="276 28 321.5 54 367 28"></polyline>
                    <path d="M321,107 L321,54" id="Stroke-98" stroke="#FFFFFF"></path>
                    <polygon id="Stroke-99" stroke="#FFFFFF" points="413 107 367 80.5003435 367 27.5003435 413 1 459 27.5003435 459 80.5003435"></polygon>
                    <polyline id="Stroke-101" stroke="#FFFFFF" points="367 28 412.5 54 458 28"></polyline>
                    <path d="M413,107 L413,54" id="Stroke-102" stroke="#FFFFFF"></path>
                    <polygon id="Stroke-131" stroke="#FFFFFF" points="459 186 413 159.499657 413 106.499657 459 80 505 106.499657 505 159.499657"></polygon>
                    <polyline id="Stroke-132" stroke="#FFFFFF" points="413 107 458.5 133 504 107"></polyline>
                    <polygon id="Stroke-134" stroke="#FFFFFF" points="459 345 413 318.499657 413 265.499657 459 239 505 265.499657 505 318.499657"></polygon>
                    <polyline id="Stroke-135" stroke="#FFFFFF" points="413 266 458.5 292 504 266"></polyline>
                    <polygon id="Stroke-140" stroke="#FFFFFF" points="230 583 184 556.500343 184 503.499657 230 477 276 503.499657 276 556.500343"></polygon>
                    <polyline id="Stroke-141" stroke="#FFFFFF" points="184 504 229.5 530 275 504"></polyline>
                    <path d="M229,583 L229,530" id="Stroke-142" stroke="#FFFFFF"></path>
                    <polygon id="Stroke-143" stroke="#FFFFFF" points="321 583 275 556.500343 275 503.499657 321 477 367 503.499657 367 556.500343"></polygon>
                    <polyline id="Stroke-144" stroke="#FFFFFF" points="276 504 321.5 530 367 504"></polyline>
                    <path d="M321,583 L321,530" id="Stroke-145" stroke="#FFFFFF"></path>
                    <polygon id="Stroke-146" stroke="#FFFFFF" points="413 583 367 556.500343 367 503.499657 413 477 459 503.499657 459 556.500343"></polygon>
                    <polyline id="Stroke-147" stroke="#FFFFFF" points="367 504 412.5 530 458 504"></polyline>
                    <path d="M413,583 L413,530" id="Stroke-148" stroke="#FFFFFF"></path>
                    <polygon id="Stroke-152" stroke="#FFFFFF" points="459 504 413 477.499657 413 424.499657 459 398 505 424.499657 505 477.499657"></polygon>
                    <polyline id="Stroke-153" stroke="#FFFFFF" points="413 424 458.5 450 504 424"></polyline>
                    <g id="Group-171" transform="translate(412.000000, 557.000000)" stroke="#FFFFFF">
                        <polygon id="Stroke-169" points="45.9894852 105.605338 0.240682266 79.2250155 0.240682266 26.4650542 45.9894852 0.0854154839 91.7382882 26.4650542 91.7382882 79.2250155"></polygon>
                    </g>
                    <polyline id="Stroke-172" stroke="#FFFFFF" points="413 583 458.5 609 504 583"></polyline>
                    <g id="Group-243" transform="translate(84.000000, 73.000000)">
                        <path d="M106.479201,113.123693 C106.479201,109.107927 103.225639,105.851975 99.2119764,105.851975 C95.1983135,105.851975 91.9447517,109.107927 91.9447517,113.123693 C91.9447517,117.139459 95.1983135,120.394725 99.2119764,120.394725 C103.225639,120.394725 106.479201,117.139459 106.479201,113.123693" id="Fill-175" fill="#1A1A1A"></path>
                        <path d="M106.479201,113.123693 C106.479201,109.107927 103.225639,105.851975 99.2119764,105.851975 C95.1983135,105.851975 91.9447517,109.107927 91.9447517,113.123693 C91.9447517,117.139459 95.1983135,120.394725 99.2119764,120.394725 C103.225639,120.394725 106.479201,117.139459 106.479201,113.123693 Z" id="Stroke-177" stroke="#FFFFFF"></path>
                        <path d="M14.5742708,271.838533 C14.5742708,267.822767 11.320709,264.567501 7.30704607,264.567501 C3.29338315,264.567501 0.0398213483,267.822767 0.0398213483,271.838533 C0.0398213483,275.854298 3.29338315,279.11025 7.30704607,279.11025 C11.320709,279.11025 14.5742708,275.854298 14.5742708,271.838533" id="Fill-179" fill="#1A1A1A"></path>
                        <path d="M14.5742708,271.838533 C14.5742708,267.822767 11.320709,264.567501 7.30704607,264.567501 C3.29338315,264.567501 0.0398213483,267.822767 0.0398213483,271.838533 C0.0398213483,275.854298 3.29338315,279.11025 7.30704607,279.11025 C11.320709,279.11025 14.5742708,275.854298 14.5742708,271.838533 Z" id="Stroke-181" stroke="#FFFFFF"></path>
                        <path d="M61.3232315,351.229451 C61.3232315,347.213686 58.0696697,343.957734 54.0560067,343.957734 C50.0423438,343.957734 46.7880966,347.213686 46.7880966,351.229451 C46.7880966,355.245217 50.0423438,358.500483 54.0560067,358.500483 C58.0696697,358.500483 61.3232315,355.245217 61.3232315,351.229451" id="Fill-183" fill="#1A1A1A"></path>
                        <path d="M61.3232315,351.229451 C61.3232315,347.213686 58.0696697,343.957734 54.0560067,343.957734 C50.0423438,343.957734 46.7880966,347.213686 46.7880966,351.229451 C46.7880966,355.245217 50.0423438,358.500483 54.0560067,358.500483 C58.0696697,358.500483 61.3232315,355.245217 61.3232315,351.229451 Z" id="Stroke-185" stroke="#FFFFFF"></path>
                        <path d="M244.17738,192.481079 C244.17738,188.465313 240.923818,185.210047 236.910155,185.210047 C232.896492,185.210047 229.642245,188.465313 229.642245,192.481079 C229.642245,196.496844 232.896492,199.752111 236.910155,199.752111 C240.923818,199.752111 244.17738,196.496844 244.17738,192.481079" id="Fill-187" fill="#1A1A1A"></path>
                        <path d="M244.17738,192.481079 C244.17738,188.465313 240.923818,185.210047 236.910155,185.210047 C232.896492,185.210047 229.642245,188.465313 229.642245,192.481079 C229.642245,196.496844 232.896492,199.752111 236.910155,199.752111 C240.923818,199.752111 244.17738,196.496844 244.17738,192.481079 Z" id="Stroke-189" stroke="#FFFFFF"></path>
                        <path d="M335.763671,86.6710027 C335.763671,82.655237 332.510109,79.399285 328.496446,79.399285 C324.482783,79.399285 321.228536,82.655237 321.228536,86.6710027 C321.228536,90.6867683 324.482783,93.9420346 328.496446,93.9420346 C332.510109,93.9420346 335.763671,90.6867683 335.763671,86.6710027" id="Fill-191" fill="#1A1A1A"></path>
                        <path d="M335.763671,86.6710027 C335.763671,82.655237 332.510109,79.399285 328.496446,79.399285 C324.482783,79.399285 321.228536,82.655237 321.228536,86.6710027 C321.228536,90.6867683 324.482783,93.9420346 328.496446,93.9420346 C332.510109,93.9420346 335.763671,90.6867683 335.763671,86.6710027 Z" id="Stroke-193" stroke="#FFFFFF"></path>
                        <path d="M289.333281,7.3135486 C289.333281,3.29778296 286.079719,0.0425166445 282.065371,0.0425166445 C278.052393,0.0425166445 274.798146,3.29778296 274.798146,7.3135486 C274.798146,11.3293142 278.052393,14.5845806 282.065371,14.5845806 C286.079719,14.5845806 289.333281,11.3293142 289.333281,7.3135486" id="Fill-195" fill="#1A1A1A"></path>
                        <path d="M289.333281,7.3135486 C289.333281,3.29778296 286.079719,0.0425166445 282.065371,0.0425166445 C278.052393,0.0425166445 274.798146,3.29778296 274.798146,7.3135486 C274.798146,11.3293142 278.052393,14.5845806 282.065371,14.5845806 C286.079719,14.5845806 289.333281,11.3293142 289.333281,7.3135486 Z" id="Stroke-197" stroke="#FFFFFF"></path>
                        <path d="M152.59102,33.7331172 C152.59102,29.7173515 149.337458,26.4620852 145.323796,26.4620852 C141.310133,26.4620852 138.055885,29.7173515 138.055885,33.7331172 C138.055885,37.7488828 141.310133,41.0048349 145.323796,41.0048349 C149.337458,41.0048349 152.59102,37.7488828 152.59102,33.7331172" id="Fill-199" fill="#1A1A1A"></path>
                        <path d="M152.59102,33.7331172 C152.59102,29.7173515 149.337458,26.4620852 145.323796,26.4620852 C141.310133,26.4620852 138.055885,29.7173515 138.055885,33.7331172 C138.055885,37.7488828 141.310133,41.0048349 145.323796,41.0048349 C149.337458,41.0048349 152.59102,37.7488828 152.59102,33.7331172 Z" id="Stroke-201" stroke="#FFFFFF"></path>
                        <path d="M381.556851,271.838533 C381.556851,267.822767 378.303289,264.567501 374.289626,264.567501 C370.275963,264.567501 367.021716,267.822767 367.021716,271.838533 C367.021716,275.854298 370.275963,279.11025 374.289626,279.11025 C378.303289,279.11025 381.556851,275.854298 381.556851,271.838533" id="Fill-207" fill="#1A1A1A"></path>
                        <path d="M381.556851,271.838533 C381.556851,267.822767 378.303289,264.567501 374.289626,264.567501 C370.275963,264.567501 367.021716,267.822767 367.021716,271.838533 C367.021716,275.854298 370.275963,279.11025 374.289626,279.11025 C378.303289,279.11025 381.556851,275.854298 381.556851,271.838533 Z" id="Stroke-209" stroke="#FFFFFF"></path>
                        <path d="M335.126118,192.513926 C335.126118,188.49816 331.872556,185.242894 327.858893,185.242894 C323.84523,185.242894 320.591669,188.49816 320.591669,192.513926 C320.591669,196.529692 323.84523,199.784958 327.858893,199.784958 C331.872556,199.784958 335.126118,196.529692 335.126118,192.513926" id="Fill-211" fill="#1A1A1A"></path>
                        <path d="M335.126118,192.513926 C335.126118,188.49816 331.872556,185.242894 327.858893,185.242894 C323.84523,185.242894 320.591669,188.49816 320.591669,192.513926 C320.591669,196.529692 323.84523,199.784958 327.858893,199.784958 C331.872556,199.784958 335.126118,196.529692 335.126118,192.513926 Z" id="Stroke-213" stroke="#FFFFFF"></path>
                        <path d="M197.74699,218.60934 C197.74699,214.593574 194.493428,211.338308 190.479765,211.338308 C186.466102,211.338308 183.211855,214.593574 183.211855,218.60934 C183.211855,222.625105 186.466102,225.880372 190.479765,225.880372 C194.493428,225.880372 197.74699,222.625105 197.74699,218.60934" id="Fill-215" fill="#1A1A1A"></path>
                        <path d="M197.74699,218.60934 C197.74699,214.593574 194.493428,211.338308 190.479765,211.338308 C186.466102,211.338308 183.211855,214.593574 183.211855,218.60934 C183.211855,222.625105 186.466102,225.880372 190.479765,225.880372 C194.493428,225.880372 197.74699,222.625105 197.74699,218.60934 Z" id="Stroke-217" stroke="#FFFFFF"></path>
                        <path d="M198.3842,113.090571 C198.3842,109.074806 195.130638,105.819539 191.116975,105.819539 C187.103312,105.819539 183.849065,109.074806 183.849065,113.090571 C183.849065,117.106337 187.103312,120.362289 191.116975,120.362289 C195.130638,120.362289 198.3842,117.106337 198.3842,113.090571" id="Fill-219" fill="#1A1A1A"></path>
                        <path d="M198.3842,113.090571 C198.3842,109.074806 195.130638,105.819539 191.116975,105.819539 C187.103312,105.819539 183.849065,109.074806 183.849065,113.090571 C183.849065,117.106337 187.103312,120.362289 191.116975,120.362289 C195.130638,120.362289 198.3842,117.106337 198.3842,113.090571 Z" id="Stroke-221" stroke="#FFFFFF"></path>
                        <path d="M197.74699,324.776692 C197.74699,320.760927 194.493428,317.50566 190.479765,317.50566 C186.466102,317.50566 183.211855,320.760927 183.211855,324.776692 C183.211855,328.792458 186.466102,332.047724 190.479765,332.047724 C194.493428,332.047724 197.74699,328.792458 197.74699,324.776692" id="Fill-223" fill="#1A1A1A"></path>
                        <path d="M197.74699,324.776692 C197.74699,320.760927 194.493428,317.50566 190.479765,317.50566 C186.466102,317.50566 183.211855,320.760927 183.211855,324.776692 C183.211855,328.792458 186.466102,332.047724 190.479765,332.047724 C194.493428,332.047724 197.74699,328.792458 197.74699,324.776692 Z" id="Stroke-225" stroke="#FFFFFF"></path>
                        <path d="M106.79784,271.871654 C106.79784,267.855889 103.544279,264.599937 99.5306157,264.599937 C95.5169528,264.599937 92.263391,267.855889 92.263391,271.871654 C92.263391,275.88742 95.5169528,279.142686 99.5306157,279.142686 C103.544279,279.142686 106.79784,275.88742 106.79784,271.871654" id="Fill-227" fill="#1A1A1A"></path>
                        <path d="M106.79784,271.871654 C106.79784,267.855889 103.544279,264.599937 99.5306157,264.599937 C95.5169528,264.599937 92.263391,267.855889 92.263391,271.871654 C92.263391,275.88742 95.5169528,279.142686 99.5306157,279.142686 C103.544279,279.142686 106.79784,275.88742 106.79784,271.871654 Z" id="Stroke-229" stroke="#FFFFFF"></path>
                        <path d="M151.95381,507.239409 C151.95381,503.223644 148.700248,499.967692 144.686585,499.967692 C140.672922,499.967692 137.418675,503.223644 137.418675,507.239409 C137.418675,511.255175 140.672922,514.510441 144.686585,514.510441 C148.700248,514.510441 151.95381,511.255175 151.95381,507.239409" id="Fill-231" fill="#1A1A1A"></path>
                        <path d="M151.95381,507.239409 C151.95381,503.223644 148.700248,499.967692 144.686585,499.967692 C140.672922,499.967692 137.418675,503.223644 137.418675,507.239409 C137.418675,511.255175 140.672922,514.510441 144.686585,514.510441 C148.700248,514.510441 151.95381,511.255175 151.95381,507.239409 Z" id="Stroke-233" stroke="#FFFFFF"></path>
                        <path d="M152.59102,351.229451 C152.59102,347.213686 149.337458,343.957734 145.323796,343.957734 C141.310133,343.957734 138.055885,347.213686 138.055885,351.229451 C138.055885,355.245217 141.310133,358.500483 145.323796,358.500483 C149.337458,358.500483 152.59102,355.245217 152.59102,351.229451" id="Fill-235" fill="#1A1A1A"></path>
                        <path d="M152.59102,351.229451 C152.59102,347.213686 149.337458,343.957734 145.323796,343.957734 C141.310133,343.957734 138.055885,347.213686 138.055885,351.229451 C138.055885,355.245217 141.310133,358.500483 145.323796,358.500483 C149.337458,358.500483 152.59102,355.245217 152.59102,351.229451 Z" id="Stroke-237" stroke="#FFFFFF"></path>
                        <path d="M61.0046607,192.481421 C61.0046607,188.465656 57.7510989,185.209704 53.737436,185.209704 C49.723773,185.209704 46.4702112,188.465656 46.4702112,192.481421 C46.4702112,196.497187 49.723773,199.752453 53.737436,199.752453 C57.7510989,199.752453 61.0046607,196.497187 61.0046607,192.481421" id="Fill-239" fill="#1A1A1A"></path>
                        <path d="M61.0046607,192.481421 C61.0046607,188.465656 57.7510989,185.209704 53.737436,185.209704 C49.723773,185.209704 46.4702112,188.465656 46.4702112,192.481421 C46.4702112,196.497187 49.723773,199.752453 53.737436,199.752453 C57.7510989,199.752453 61.0046607,196.497187 61.0046607,192.481421 Z" id="Stroke-241" stroke="#FFFFFF"></path>
                    </g>
                </g>
            </g>
        </g>
    </g>
</svg>