<?xml version="1.0" encoding="UTF-8"?>
<svg width="215px" height="228px" viewBox="0 0 215 228" version="1.1" xmlns="http://www.w3.org/2000/svg" xmlns:xlink="http://www.w3.org/1999/xlink">
    <!-- Generator: Sketch 49.2 (51160) - http://www.bohemiancoding.com/sketch -->
    <title>graphic-3-month-plan</title>
    <desc>Created with Sketch.</desc>
    <defs></defs>
    <g id="Page-1" stroke="none" stroke-width="1" fill="none" fill-rule="evenodd">
        <g id="v3" transform="translate(-808.000000, -2833.000000)">
            <g id="Group-6" transform="translate(670.000000, 2795.000000)">
                <g id="graphic-3-month-plan" transform="translate(138.000000, 38.000000)">
                    <g id="Group-4-Copy-3" transform="translate(62.858369, 50.412017)">
                        <g id="Group-3">
                            <rect id="Rectangle" fill="#C2C2C2" x="0" y="0" width="151.93133" height="176.824034"></rect>
                            <rect id="Rectangle" fill="#0A3983" x="0" y="0" width="151.93133" height="80.4404418"></rect>
                        </g>
                    </g>
                    <g id="Group-4-Copy-2" transform="translate(33.673820, 27.236052)">
                        <g id="Group-3">
                            <rect id="Rectangle" fill="#E5E4E4" x="0" y="0" width="151.93133" height="176.824034"></rect>
                            <rect id="Rectangle" fill="#0F52BA" x="0" y="0" width="151.93133" height="80.4404418"></rect>
                        </g>
                    </g>
                    <g id="Group-4-Copy" transform="translate(0.197425, 0.626609)">
                        <g id="Group-3">
                            <rect id="Rectangle" fill="#FFFFFF" x="0" y="0" width="151.93133" height="176.824034"></rect>
                            <rect id="Rectangle" fill="#166BEE" x="0" y="0" width="151.93133" height="80.4404418"></rect>
                            <rect id="Rectangle-12" fill="#333333" x="12.2992029" y="97.8329698" width="126.609442" height="6.52219799"></rect>
                            <rect id="Rectangle-12-Copy" fill="#333333" x="12.2992029" y="112.326743" width="100.564071" height="6.52219799"></rect>
                            <rect id="Rectangle-12-Copy-2" fill="#333333" x="12.2992029" y="126.095828" width="100.564071" height="6.52219799"></rect>
                            <rect id="Rectangle-12-Copy-3" fill="#333333" x="12.2992029" y="140.589601" width="66.5603924" height="6.52219799"></rect>
                            <rect id="Rectangle-12-Copy-4" fill="#333333" x="12.2992029" y="156.532752" width="86.8179031" height="6.52219799"></rect>
                            <rect id="Rectangle-4" fill="#333333" x="84.6474555" y="140.589601" width="29.6627836" height="6.52219799"></rect>
                        </g>
                        <g id="logo-bbr-triblock" transform="translate(36.897609, 5.321488)" fill-rule="nonzero">
                            <polygon id="Shape" fill="#333333" points="41.9971271 44.7995351 21.4510502 33.7160461 21.4510502 12.4214633 41.9971271 23.5049523"></polygon>
                            <polygon id="Shape" fill="#1A1A1A" points="41.9971271 44.7995351 62.543204 33.7160461 62.543204 12.4214633 41.9971271 23.5049523"></polygon>
                            <polygon id="Shape" fill="#666666" points="41.9971271 1.33797421 21.4510502 12.4214633 41.9971271 23.5049523 62.543204 12.4214633"></polygon>
                            <path d="M41.9971271,66.5235353 C41.8551142,66.5240884 41.7149441,66.4915793 41.5878427,66.4286115 L21.0463134,56.2581994 L21.0144802,56.2581994 L0.477498467,45.1611498 C0.192121156,44.9974229 0.0181517621,44.693083 0.0227380222,44.3655975 L0.0227380222,23.052934 L0,23.052934 C0.00981308739,22.73045 0.191785007,22.4376054 0.477498467,22.2845029 L41.5651047,0.108484395 C41.8347334,-0.0361785872 42.1595208,-0.0361785872 42.4291495,0.108484395 L62.9752264,11.1919735 C63.0709132,11.2432621 63.1558188,11.3123114 63.2253447,11.3953817 C63.262735,11.4391056 63.2962113,11.4859924 63.325392,11.5355074 C63.386314,11.6532625 63.420468,11.7828822 63.4254393,11.9152028 L63.4254393,54.4636867 C63.425444,54.7959389 63.2420917,55.1014191 62.9479408,55.2592389 L42.4291495,66.4150509 C42.2964195,66.486259 42.1479566,66.5235393 41.9971271,66.5235353 Z M23.4201629,55.4129251 L41.0876062,64.1594795 L41.0876062,45.8482176 L23.4201629,55.4129251 Z M42.906648,44.9034993 L42.906648,64.1007171 L61.6336831,53.9981078 L61.6336831,34.8054102 L42.906648,44.9034993 Z M1.81904178,43.8457765 L20.5460769,53.9483858 L20.5460769,34.6924056 L1.81904178,24.5897963 L1.81904178,43.8457765 Z M22.3651187,34.6924056 L22.3651187,53.9257849 L41.0876062,43.7870141 L41.0876062,24.5897963 L22.3651187,34.6924056 Z M42.906648,24.5310339 L42.906648,42.8061344 L60.5695437,33.2775883 L42.906648,24.5310339 Z M2.81496715,23.052934 L21.4601454,33.1058213 L40.0916808,23.052934 L21.4465026,12.9955265 L2.81496715,23.052934 Z M43.9662398,23.052934 L61.6336831,31.7994884 L61.6336831,13.5063072 L43.9662398,23.052934 Z M23.3610441,11.9875257 L42.0062223,22.040413 L60.6514005,11.9875257 L42.0062223,1.9301182 L23.3610441,11.9875257 Z" id="Shape" fill="#FFFFFF"></path>
                        </g>
                    </g>
                </g>
            </g>
        </g>
    </g>
</svg>