<?xml version="1.0" encoding="UTF-8"?>
<svg width="215px" height="228px" viewBox="0 0 215 228" version="1.1" xmlns="http://www.w3.org/2000/svg" xmlns:xlink="http://www.w3.org/1999/xlink">
    <!-- Generator: Sketch 49.2 (51160) - http://www.bohemiancoding.com/sketch -->
    <title>graphic-monthly-plan</title>
    <desc>Created with Sketch.</desc>
    <defs>
        <linearGradient x1="29.0124758%" y1="50.0034019%" x2="100.04302%" y2="50.0034019%" id="linearGradient-1">
            <stop stop-color="#166BEE" offset="0%"></stop>
            <stop stop-color="#0F52BA" offset="100%"></stop>
        </linearGradient>
    </defs>
    <g id="Page-1" stroke="none" stroke-width="1" fill="none" fill-rule="evenodd">
        <g id="graphic-monthly-plan">
            <rect id="Rectangle" fill="#E5E4E4" x="0" y="0" width="214.592275" height="227.467811"></rect>
            <rect id="Rectangle" fill="#1A1A1A" x="0" y="0" width="214.592275" height="103.479209"></rect>
            <rect id="Rectangle-12" fill="#0F52BA" x="18" y="126" width="178.826896" height="8.39020615"></rect>
            <rect id="Rectangle-12-Copy" fill="#0F52BA" x="18" y="145" width="142.039648" height="8.39020615"></rect>
            <rect id="Rectangle-12-Copy-2" fill="#0F52BA" x="18" y="163" width="142.039648" height="8.39020615"></rect>
            <rect id="Rectangle-12-Copy-3" fill="#0F52BA" x="18" y="181" width="94.0118537" height="8.39020615"></rect>
            <rect id="Rectangle-12-Copy-4" fill="#0F52BA" x="18" y="202" width="122.624157" height="8.39020615"></rect>
            <rect id="Rectangle-4" fill="#0F52BA" x="120" y="181" width="41.896587" height="8.39020615"></rect>
            <g id="logo-bbr-triblock" transform="translate(67.000000, 11.000000)">
                <g id="Shape">
                    <polygon fill="#333333" fill-rule="nonzero" points="52.8469242 56.2687304 26.9928469 42.3477409 26.9928469 15.6015005 52.8469242 29.5224899"></polygon>
                    <polygon fill="#1A1A1A" fill-rule="nonzero" points="52.8469242 56.2687304 78.7010014 42.3477409 78.7010014 15.6015005 52.8469242 29.5224899"></polygon>
                    <polygon fill="#666666" fill-rule="nonzero" points="52.8469242 1.68051097 26.9928469 15.6015005 52.8469242 29.5224899 78.7010014 15.6015005"></polygon>
                    <path d="M52.8469242,83.5543239 C52.6682228,83.5550187 52.4918403,83.5141868 52.3319027,83.4350985 L26.4835479,70.6609442 L26.4434907,70.6609442 L0.600858369,56.7229225 C0.241754922,56.5172797 0.0228412004,56.1350253 0.0286123033,55.7236998 L0.0286123033,28.9547498 L0,28.9547498 C0.012348261,28.5497062 0.241331929,28.1818899 0.600858369,27.9895914 L52.3032904,0.136257646 C52.6425767,-0.0454407208 53.0512717,-0.0454407208 53.3905579,0.136257646 L79.2446352,14.0572471 C79.3650423,14.1216663 79.4718829,14.208393 79.5593705,14.3127302 C79.6064205,14.3676479 79.6485453,14.4265383 79.6852647,14.4887297 C79.7619257,14.6366315 79.8049032,14.7994353 79.8111588,14.9656314 L79.8111588,68.4070156 C79.8111648,68.8243282 79.5804441,69.2080149 79.2103004,69.4062384 L53.3905579,83.4180663 C53.2235376,83.5075045 53.03672,83.5543289 52.8469242,83.5543239 Z M29.4706724,69.59927 L51.702432,80.5850427 L51.702432,57.5858876 L29.4706724,69.59927 Z M53.9914163,56.3993106 L53.9914163,80.5112365 L77.5565093,67.8222432 L77.5565093,43.7159947 L53.9914163,56.3993106 Z M2.28898426,55.0707986 L25.8540773,67.7597918 L25.8540773,43.5740597 L2.28898426,30.8850664 L2.28898426,55.0707986 Z M28.1430615,43.5740597 L28.1430615,67.7314048 L51.702432,54.9969923 L51.702432,30.8850664 L28.1430615,43.5740597 Z M53.9914163,30.8112602 L53.9914163,53.7649961 L76.2174535,41.7970329 L53.9914163,30.8112602 Z M3.54220315,28.9547498 L27.0042918,41.5812916 L50.4492132,28.9547498 L26.9871245,16.3225305 L3.54220315,28.9547498 Z M55.3247496,28.9547498 L77.5565093,39.9405225 L77.5565093,16.9640769 L55.3247496,28.9547498 Z M29.3962804,15.0564699 L52.8583691,27.6830117 L76.3204578,15.0564699 L52.8583691,2.42425062 L29.3962804,15.0564699 Z" fill="url(#linearGradient-1)" fill-rule="nonzero"></path>
                </g>
            </g>
        </g>
    </g>
</svg>