<?xml version="1.0" encoding="UTF-8"?>
<svg width="1263px" height="609px" viewBox="0 0 1263 609" version="1.1" xmlns="http://www.w3.org/2000/svg" xmlns:xlink="http://www.w3.org/1999/xlink">
    <!-- Generator: Sketch 49.2 (51160) - http://www.bohemiancoding.com/sketch -->
    <title>graph-expo-2</title>
    <desc>Created with Sketch.</desc>
    <defs>
        <path d="M0,583.032398 C559.168619,560.860542 980.150241,366.516409 1262.94486,0 C1262.94486,299.022632 1262.94486,504.799874 1262.94486,617.331726 L0,617.331726 L0,583.032398 Z" id="path-1"></path>
    </defs>
    <g id="Page-1" stroke="none" stroke-width="1" fill="none" fill-rule="evenodd">
        <g id="graph-expo-2">
            <mask id="mask-2" fill="white">
                <use xlink:href="#path-1"></use>
            </mask>
            <g id="Mask"></g>
            <g id="graph-expo" opacity="0.287420743" mask="url(#mask-2)" stroke="#979797" stroke-linecap="square" stroke-width="5">
                <g transform="translate(-3.000000, -337.000000)">
                    <path d="M15,941 L15,878" id="Line-3"></path>
                    <path d="M186,941 L186,878" id="Line-3-Copy-12"></path>
                    <path d="M29,942 L29,831.770833" id="Line-3-Copy-2"></path>
                    <path d="M200,942 L200,831.770833" id="Line-3-Copy-13"></path>
                    <path d="M58,941 L58,852.767241" id="Line-3-Copy-4"></path>
                    <path d="M229,941 L229,852.767241" id="Line-3-Copy-14"></path>
                    <path d="M72,941 L72,789.767677" id="Line-3-Copy-5"></path>
                    <path d="M243,941 L243,789.767677" id="Line-3-Copy-15"></path>
                    <path d="M86,942 L86,845" id="Line-3-Copy-6"></path>
                    <path d="M257,941 L257,757.766667" id="Line-3-Copy-16"></path>
                    <path d="M100,943 L100,805" id="Line-3-Copy-7"></path>
                    <path d="M271,941 L271,734.766667" id="Line-3-Copy-17"></path>
                    <path d="M114,941 L114,829.767123" id="Line-3-Copy-8"></path>
                    <path d="M285,941 L285,829.767123" id="Line-3-Copy-18"></path>
                    <path d="M128,941 L128,855.767857" id="Line-3-Copy-9"></path>
                    <path d="M299,941 L299,855.767857" id="Line-3-Copy-19"></path>
                    <path d="M142,941 L142,817.765432" id="Line-3-Copy-10"></path>
                    <path d="M313,941 L313,817.765432" id="Line-3-Copy-20"></path>
                    <path d="M156,942 L156,851" id="Line-3-Copy-11"></path>
                    <path d="M327,941 L327,697.669285" id="Line-3-Copy-21"></path>
                    <path d="M415,941 L415,697.669285" id="Line-3-Copy-30"></path>
                    <path d="M342,941 L342,737.766917" id="Line-3-Copy-25"></path>
                    <path d="M430,941 L430,737.766917" id="Line-3-Copy-31"></path>
                    <path d="M356,941 L356,625.766057" id="Line-3-Copy-26"></path>
                    <path d="M444,941 L444,685.766467" id="Line-3-Copy-32"></path>
                    <path d="M371,942 L371,581.701764" id="Line-3-Copy-27"></path>
                    <path d="M459,942 L459,581.701764" id="Line-3-Copy-33"></path>
                    <path d="M386.2,942 L386.8,561" id="Line-3-Copy-28"></path>
                    <path d="M474,941 L474,628.767157" id="Line-3-Copy-34"></path>
                    <path d="M503.666667,941 L503.666667,522.767399" id="Line-3-Copy-36"></path>
                    <path d="M682.666667,941 L682.666667,522.767399" id="Line-3-Copy-48"></path>
                    <path d="M593,941 L593,373.767568" id="Line-3-Copy-42"></path>
                    <path d="M772,941 L772,373.767568" id="Line-3-Copy-49"></path>
                    <path d="M906,941 L906,373.767568" id="Line-3-Copy-60"></path>
                    <path d="M548.666667,941 L548.666667,462.695678" id="Line-3-Copy-39"></path>
                    <path d="M727.666667,941 L727.666667,462.695678" id="Line-3-Copy-50"></path>
                    <path d="M861.666667,941 L861.666667,462.695678" id="Line-3-Copy-61"></path>
                    <path d="M638,942 L638,504.768421" id="Line-3-Copy-43"></path>
                    <path d="M817,942 L817,504.768421" id="Line-3-Copy-51"></path>
                    <path d="M951,942 L951,504.768421" id="Line-3-Copy-62"></path>
                    <path d="M518.666667,942 L518.666667,547.768482" id="Line-3-Copy-37"></path>
                    <path d="M697.666667,942 L697.666667,547.768482" id="Line-3-Copy-52"></path>
                    <path d="M608,942 L608,392.768156" id="Line-3-Copy-44"></path>
                    <path d="M787,942 L787,392.768156" id="Line-3-Copy-53"></path>
                    <path d="M921,942 L921,392.768156" id="Line-3-Copy-63"></path>
                    <path d="M563.666667,941 L563.666667,462.695678" id="Line-3-Copy-40"></path>
                    <path d="M742.666667,942 L742.666667,447.768634" id="Line-3-Copy-54"></path>
                    <path d="M876.666667,941 L876.666667,525.767528" id="Line-3-Copy-64"></path>
                    <path d="M653,942 L653,298.768496" id="Line-3-Copy-45"></path>
                    <path d="M832,940.502407 L832,433.767372" id="Line-3-Copy-55"></path>
                    <path d="M966,941 L966,233" id="Line-3-Copy-65"></path>
                    <path d="M533.666667,941 L533.666667,516.767148" id="Line-3-Copy-38"></path>
                    <path d="M712.666667,941 L712.666667,516.767148" id="Line-3-Copy-56"></path>
                    <path d="M623,942 L623,332.768262" id="Line-3-Copy-46"></path>
                    <path d="M802,942 L802,332.768262" id="Line-3-Copy-57"></path>
                    <path d="M936,942 L936,332.768262" id="Line-3-Copy-66"></path>
                    <path d="M578,941 L578,416.762487" id="Line-3-Copy-41"></path>
                    <path d="M757,941 L757,416.762487" id="Line-3-Copy-58"></path>
                    <path d="M891,941 L891,416.762487" id="Line-3-Copy-67"></path>
                    <path d="M668,941 L668,344.767352" id="Line-3-Copy-47"></path>
                    <path d="M847,941.590343 L847,318.767813" id="Line-3-Copy-59"></path>
                    <path d="M981,941.59006 L981,195.767967" id="Line-3-Copy-68"></path>
                    <path d="M1009,941.589867 L1009,178.768072" id="Line-3-Copy-70"></path>
                    <path d="M1066,941.589867 L1066,178.768072" id="Line-3-Copy-74"></path>
                    <path d="M1136,941.589867 L1136,178.768072" id="Line-3-Copy-79"></path>
                    <path d="M995,941.589463 L995,187.768293" id="Line-3-Copy-69"></path>
                    <path d="M1023,941 L1023,170" id="Line-3-Copy-71"></path>
                    <path d="M1080,941 L1080,170" id="Line-3-Copy-75"></path>
                    <path d="M1150,941.685962 L1150,112.768022" id="Line-3-Copy-80"></path>
                    <path d="M1037,941.686955 L1037,151.767442" id="Line-3-Copy-72"></path>
                    <path d="M1094,941.686955 L1094,151.767442" id="Line-3-Copy-76"></path>
                    <path d="M1164,941.685536 L1164,81.7682709" id="Line-3-Copy-81"></path>
                    <path d="M1051,941.685259 L1051,276.767989" id="Line-3-Copy-73"></path>
                    <path d="M1108,941 L1108,98" id="Line-3-Copy-77"></path>
                    <path d="M1178,941.770767 L1178,45.7675214" id="Line-3-Copy-82"></path>
                    <path d="M1122,941.769421 L1122,127.768362" id="Line-3-Copy-78"></path>
                    <path d="M1192,941.769709 L1192,98.7681818" id="Line-3-Copy-83"></path>
                    <path d="M1206,941 L1206,146" id="Line-3-Copy-84"></path>
                    <path d="M1220,940.856052 L1220,118.767724" id="Line-3-Copy-85"></path>
                    <path d="M401,941 L401,720.767361" id="Line-3-Copy-29"></path>
                    <path d="M489,941 L489,720.767361" id="Line-3-Copy-35"></path>
                    <path d="M1234,941 L1234,0.75970473" id="Line-3-Copy-24"></path>
                    <path d="M1249,942 L1249,51.7412633" id="Line-3-Copy-86"></path>
                    <path d="M1264,941 L1264,15.7678275" id="Line-3-Copy-87"></path>
                    <path d="M43,941 L43,812.765558" id="Line-3-Copy-3"></path>
                    <path d="M214,941 L214,812.765558" id="Line-3-Copy-22"></path>
                    <path d="M171,942 L171,902" id="Line-3-Copy-23"></path>
                </g>
            </g>
        </g>
    </g>
</svg>