<?xml version="1.0" encoding="UTF-8"?>
<svg width="342px" height="423px" viewBox="0 0 342 423" version="1.1" xmlns="http://www.w3.org/2000/svg" xmlns:xlink="http://www.w3.org/1999/xlink">
    <!-- Generator: Sketch 49.2 (51160) - http://www.bohemiancoding.com/sketch -->
    <title>logo-bbr-triblock0</title>
    <desc>Created with Sketch.</desc>
    <defs></defs>
    <g id="Page-1" stroke="none" stroke-width="1" fill="none" fill-rule="evenodd">
        <g id="v3" transform="translate(0.000000, -3644.000000)" fill-rule="nonzero">
            <g id="FREE-REPORT" transform="translate(0.000000, 3644.000000)">
                <g id="logo-bbr-triblock">
                    <g transform="translate(-115.000000, -61.000000)" id="Shape">
                        <polygon fill="#166BEE" points="155 241.582996 155 89 304 168.417004 304 321"></polygon>
                        <polygon fill="#166BEE" points="450 241.582996 450 89 301 168.417004 301 321"></polygon>
                        <polygon fill="#166BEE" points="155 87 302.5 168 450 87 302.5 6"></polygon>
                        <path d="M302.602352,483.999949 C301.579105,484.003974 300.569136,483.76745 299.65333,483.30932 L151.645228,409.313283 L151.41586,409.313283 L3.44052484,328.575385 C1.38429263,327.38417 0.130789087,325.16991 0.163834516,322.78725 L0.163834516,167.724444 L0,167.724444 C0.0707063442,165.378174 1.38187057,163.247547 3.44052484,162.133632 L299.489496,0.789384491 C301.432255,-0.263128164 303.772449,-0.263128164 305.715208,0.789384491 L453.756077,81.4286212 C454.445529,81.801778 455.0573,82.3041545 455.558256,82.908542 C455.827665,83.2266604 456.068873,83.5677906 456.279128,83.9280429 C456.71809,84.7847843 456.96418,85.727848 457,86.6905616 L457,396.257093 C457.000034,398.674433 455.678924,400.896991 453.559475,402.045228 L305.715208,483.210658 C304.758847,483.728741 303.689126,483.999978 302.602352,483.999949 Z M168.749552,403.16339 L296.048971,466.799982 L296.048971,333.574228 L168.749552,403.16339 Z M309.155732,326.700818 L309.155732,466.372449 L444.08984,392.869719 L444.08984,253.230976 L309.155732,326.700818 Z M13.1067613,319.005231 L148.040869,392.507961 L148.040869,252.408797 L13.1067613,178.906067 L13.1067613,319.005231 Z M161.14763,252.408797 L161.14763,392.343525 L296.048971,318.577698 L296.048971,178.906067 L161.14763,252.408797 Z M309.155732,178.478535 L309.155732,311.441191 L436.422385,242.115126 L309.155732,178.478535 Z M20.2827131,167.724444 L154.627017,240.865416 L288.873019,167.724444 L154.528716,94.5505851 L20.2827131,167.724444 Z M316.790421,167.724444 L444.08984,231.361036 L444.08984,98.2668305 L316.790421,167.724444 Z M168.323582,87.2167557 L302.667886,160.357727 L437.012189,87.2167557 L302.667886,14.0428969 L168.323582,87.2167557 Z" fill="#0F52BA"></path>
                    </g>
                </g>
            </g>
        </g>
    </g>
</svg>