<?xml version="1.0" encoding="UTF-8"?>
<svg width="201px" height="57px" viewBox="0 0 201 57" version="1.1" xmlns="http://www.w3.org/2000/svg" xmlns:xlink="http://www.w3.org/1999/xlink">
    <!-- Generator: Sketch 49.2 (51160) - http://www.bohemiancoding.com/sketch -->
    <title>logo-bbr-white-stacked</title>
    <desc>Created with Sketch.</desc>
    <defs>
        <linearGradient x1="29.0124758%" y1="50.0034019%" x2="100.04302%" y2="50.0034019%" id="linearGradient-1">
            <stop stop-color="#166BEE" offset="0%"></stop>
            <stop stop-color="#0F52BA" offset="100%"></stop>
        </linearGradient>
    </defs>
    <g id="Page-1" stroke="none" stroke-width="1" fill="none" fill-rule="evenodd">
        <g id="v3" transform="translate(-156.000000, -7624.000000)">
            <g id="FOOTER" transform="translate(0.000000, 7083.000000)">
                <g id="logo-bbr-white-stacked" transform="translate(156.000000, 541.000000)">
                    <g id="Shape">
                        <polygon fill="#333333" fill-rule="nonzero" points="35.6968269 38.1707432 18.2330192 28.7272297 18.2330192 10.5835135 35.6968269 20.027027"></polygon>
                        <polygon fill="#1A1A1A" fill-rule="nonzero" points="35.6968269 38.1707432 53.1606346 28.7272297 53.1606346 10.5835135 35.6968269 20.027027"></polygon>
                        <polygon fill="#666666" fill-rule="nonzero" points="35.6968269 1.14 18.2330192 10.5835135 35.6968269 20.027027 53.1606346 10.5835135"></polygon>
                        <path d="M35.6968269,56.6803378 C35.5761184,56.6808091 35.4569763,56.6531102 35.3489423,56.5994595 L17.889,47.9339189 L17.8619423,47.9339189 L0.405865385,38.4788514 C0.163299638,38.3393504 0.0154286818,38.0800424 0.0193269231,37.8010135 L0.0193269231,19.6418919 L0,19.6418919 C0.00834095345,19.3671245 0.163013917,19.1176107 0.405865385,18.9871622 L35.3296154,0.0924324324 C35.5587951,-0.0308253994 35.8348588,-0.0308253994 36.0640385,0.0924324324 L53.5278462,9.53594595 C53.6091782,9.57964566 53.6813465,9.63847804 53.7404423,9.70925676 C53.7722234,9.74651102 53.8006777,9.78646015 53.8254808,9.82864865 C53.8772634,9.92898006 53.9062937,10.0394205 53.9105192,10.1521622 L53.9105192,46.4049324 C53.9105233,46.6880227 53.754677,46.9483024 53.5046538,47.0827703 L36.0640385,56.5879054 C35.9512203,56.6485771 35.8250294,56.6803412 35.6968269,56.6803378 Z M19.9067308,47.2137162 L34.92375,54.6660811 L34.92375,39.0642568 L19.9067308,47.2137162 Z M36.4699038,38.2593243 L36.4699038,54.6160135 L52.3875577,46.0082432 L52.3875577,29.6554054 L36.4699038,38.2593243 Z M1.54615385,37.3581081 L17.4638077,45.9658784 L17.4638077,29.5591216 L1.54615385,20.9513514 L1.54615385,37.3581081 Z M19.0099615,29.5591216 L19.0099615,45.9466216 L34.92375,37.3080405 L34.92375,20.9513514 L19.0099615,29.5591216 Z M36.4699038,20.9012838 L36.4699038,36.4722973 L51.4830577,28.3536486 L36.4699038,20.9012838 Z M2.39267308,19.6418919 L18.24075,28.2072973 L34.0772308,19.6418919 L18.2291538,11.0726351 L2.39267308,19.6418919 Z M37.3705385,19.6418919 L52.3875577,27.0942568 L52.3875577,11.5078378 L37.3705385,19.6418919 Z M19.8564808,10.2137838 L35.7045577,18.7791892 L51.5526346,10.2137838 L35.7045577,1.64452703 L19.8564808,10.2137838 Z" fill="url(#linearGradient-1)" fill-rule="nonzero"></path>
                        <path d="M80.8638462,24.0093243 L80.8638462,7.24439189 L86.9054423,7.24439189 C87.8435185,7.2342946 88.7797333,7.32990176 89.69625,7.52939189 C90.4387609,7.68442416 91.1463079,7.97424855 91.7835577,8.38439189 C92.3336569,8.74796613 92.7819179,9.24496188 93.0861923,9.82864865 C93.4013313,10.463783 93.5578083,11.1653732 93.5423077,11.8737162 C93.5436732,12.2471552 93.5008586,12.6194531 93.41475,12.9829054 C93.3312101,13.3382951 93.1929991,13.6786707 93.0050192,13.9919595 C92.8103611,14.3139565 92.5619896,14.6005005 92.2705962,14.8392568 C91.9412391,15.1035106 91.5703195,15.3117207 91.1728269,15.455473 C91.6273754,15.5647239 92.0582577,15.7552419 92.4445385,16.0177703 C92.7748038,16.2483405 93.0603173,16.5367322 93.2871923,16.8689189 C93.501277,17.187932 93.6594295,17.5408555 93.7549038,17.9126351 C93.851687,18.2823675 93.9010419,18.6628323 93.9017885,19.0449324 C93.9017885,20.7035811 93.3696538,21.945 92.3053846,22.7691892 C91.2411154,23.5933784 89.6666154,24.0067568 87.5818846,24.0093243 L80.8638462,24.0093243 Z M84.9186346,14.25 L87.033,14.25 C87.9181731,14.25 88.5520962,14.0805405 88.9270385,13.7647297 C89.3223811,13.4140113 89.5322388,12.9005175 89.49525,12.3743919 C89.5536141,11.7919059 89.3244389,11.2174577 88.8806538,10.8338514 C88.4747885,10.5257432 87.8138077,10.3678378 86.9054423,10.3678378 L84.9186346,10.3678378 L84.9186346,14.25 Z M84.9186346,16.8958784 L84.9186346,20.8974324 L87.5780192,20.8974324 C87.9316264,20.9063762 88.2842799,20.8569237 88.6216731,20.7510811 C88.8834406,20.6662815 89.1235124,20.5256528 89.3251731,20.3389865 C89.5001247,20.1721818 89.6326353,19.9662158 89.7117115,19.7381757 C89.8007362,19.4912445 89.8439583,19.2302432 89.8392692,18.9679054 C89.8419131,18.6727673 89.8042012,18.3786454 89.7271731,18.0936486 C89.6534346,17.845179 89.5208692,17.6179944 89.3406346,17.4312162 C89.1562999,17.2416923 88.9299059,17.0979066 88.6796538,17.0114189 C88.3639722,16.9034999 88.0314811,16.8526335 87.6978462,16.8612162 L84.9186346,16.8958784 Z" fill="#FFFFFF" fill-rule="nonzero"></path>
                        <polygon fill="#FFFFFF" fill-rule="nonzero" points="99.5800385 24.0093243 95.676 24.0093243 95.676 6.32391892 99.5800385 6.32391892"></polygon>
                        <path d="M108.547731,24.0093243 C108.460012,23.8460186 108.388797,23.6744324 108.335135,23.4970946 C108.277154,23.3083784 108.223038,23.1119595 108.176654,22.8924324 C107.454022,23.7998849 106.334061,24.3011039 105.17325,24.2365541 C104.616551,24.2391829 104.063521,24.1466945 103.538192,23.9631081 C103.047786,23.7872699 102.592406,23.5265075 102.193038,23.1928378 C101.80786,22.8676418 101.494602,22.4663437 101.273077,22.0143243 C101.044532,21.5411518 100.928154,21.021986 100.932923,20.4968919 C100.921758,19.9017714 101.041833,19.3114626 101.284673,18.7676351 C101.52714,18.2557633 101.897073,17.8142508 102.35925,17.4851351 C102.91324,17.1060332 103.533257,16.8330668 104.187577,16.6802027 C105.044739,16.4784371 105.923814,16.3839918 106.804442,16.3990541 L108.006577,16.3990541 L108.006577,15.740473 C108.031343,15.29654 107.909121,14.8567858 107.658692,14.4887838 C107.372515,14.1533191 106.938507,13.9803464 106.499077,14.0266216 C106.12574,14.0015189 105.757178,14.1216261 105.470885,14.3616892 C105.214661,14.645814 105.093551,15.0260646 105.138462,15.4054054 L101.234423,15.4054054 C101.230267,14.8442546 101.362912,14.2904882 101.620962,13.7916892 C101.887523,13.2854919 102.263836,12.8447654 102.722596,12.5014865 C103.245251,12.1210821 103.829727,11.8331617 104.450423,11.6503378 C105.184481,11.4356052 105.946704,11.331748 106.711673,11.3422297 C107.41184,11.3345044 108.109518,11.4265852 108.783519,11.6156757 C109.383417,11.7805996 109.943566,12.064898 110.430173,12.4514189 C110.895059,12.826701 111.266759,13.3038083 111.516346,13.8456081 C111.786081,14.4512632 111.918077,15.10885 111.902885,15.7712838 L111.902885,20.8666216 C111.902885,21.2517568 111.902885,21.6368919 111.937673,21.9257432 C111.956817,22.1843645 111.991669,22.4415925 112.042038,22.6960135 C112.081923,22.9014871 112.137488,23.1036282 112.20825,23.3006757 C112.2705,23.4715989 112.345438,23.6376662 112.432442,23.7975 L112.432442,23.9939189 L108.547731,24.0093243 Z M106.108673,21.4751351 C106.533924,21.4914706 106.954624,21.3829945 107.318538,21.1631757 C107.603455,20.9909695 107.840117,20.7498683 108.006577,20.4622297 L108.006577,18.4864865 L106.78125,18.4864865 C106.46782,18.478106 106.155642,18.5290755 105.861288,18.6366892 C105.413009,18.7973671 105.069379,19.162671 104.937462,19.6187838 C104.870583,19.8411903 104.836724,20.07215 104.836962,20.3043243 C104.824643,20.6292703 104.956056,20.943235 105.196442,21.1631757 C105.448858,21.3803217 105.775624,21.4920671 106.108673,21.4751351 Z" fill="#FFFFFF" fill-rule="nonzero"></path>
                        <path d="M118.876038,21.2440541 C119.343175,21.2728966 119.802071,21.1116847 120.14775,20.7972973 C120.466061,20.4683351 120.63028,20.0208179 120.6,19.5648649 L124.248923,19.5648649 C124.264629,20.2273433 124.13261,20.8850409 123.862385,21.4905405 C123.60408,22.0543672 123.228592,22.5571375 122.76075,22.9656081 C122.269428,23.389035 121.699459,23.7122409 121.083173,23.9168919 C120.409283,24.1417134 119.702641,24.2536369 118.992,24.2481081 C118.113467,24.2666768 117.240684,24.1027222 116.42925,23.7666892 C115.726344,23.4661081 115.100195,23.0120214 114.597058,22.437973 C114.084129,21.8478382 113.699785,21.1580046 113.468365,20.4121622 C113.218224,19.601317 113.09438,18.7570417 113.101154,17.9087838 L113.101154,17.6468919 C113.094442,16.7961126 113.218275,15.9493085 113.468365,15.1358108 C113.696066,14.399438 114.069312,13.7158911 114.566135,13.1254054 C115.066475,12.5533267 115.688391,12.0994371 116.386731,11.7966892 C117.192422,11.4595884 118.060399,11.2955471 118.934019,11.3152703 C119.666454,11.3055511 120.395395,11.417489 121.090904,11.6464865 C121.710933,11.8513656 122.28106,12.1832788 122.764615,12.6208784 C123.239955,13.0572265 123.611107,13.5941674 123.850788,14.1922297 C124.118932,14.8659014 124.250312,15.5858726 124.237327,16.310473 L120.6,16.310473 C120.600184,16.0504591 120.566401,15.7915272 120.4995,15.5402027 C120.440776,15.3070255 120.332708,15.089048 120.182538,14.9008784 C120.034601,14.7186285 119.846874,14.5724172 119.633654,14.4733784 C119.390501,14.3659006 119.126514,14.3132947 118.860577,14.3193243 C118.518831,14.3022389 118.180846,14.3969099 117.898096,14.5889189 C117.65038,14.776726 117.456999,15.0265452 117.337615,15.312973 C117.197716,15.6535104 117.110398,16.0131991 117.078635,16.3797973 C117.034441,16.8045859 117.012508,17.2313815 117.012923,17.6584459 L117.012923,17.9203378 C117.012123,18.353818 117.034057,18.7870438 117.078635,19.2182432 C117.111281,19.5822075 117.198581,19.9392264 117.337615,20.2773649 C117.453242,20.560652 117.646033,20.8061012 117.894231,20.9860135 C118.187395,21.1698576 118.530007,21.2599034 118.876038,21.2440541 Z" fill="#FFFFFF" fill-rule="nonzero"></path>
                        <polygon fill="#FFFFFF" fill-rule="nonzero" points="130.433538 19.3684459 129.335769 20.4622297 129.335769 24.0093243 125.439462 24.0093243 125.439462 6.31236486 129.335769 6.31236486 129.335769 15.7058108 129.722308 15.1897297 132.66 11.5502027 137.325519 11.5502027 132.969231 16.6725 137.607692 24.0093243 133.158635 24.0093243"></polygon>
                        <path d="M143.479212,24.0093243 L143.479212,7.24439189 L149.520808,7.24439189 C150.458884,7.2342946 151.395099,7.32990176 152.311615,7.52939189 C153.053202,7.6835174 153.759643,7.97342559 154.395058,8.38439189 C154.946239,8.74785384 155.395783,9.24479663 155.701558,9.82864865 C156.018033,10.4634494 156.175839,11.1650559 156.161538,11.8737162 C156.162904,12.2471552 156.120089,12.6194531 156.033981,12.9829054 C155.950441,13.3382951 155.81223,13.6786707 155.62425,13.9919595 C155.429592,14.3139565 155.18122,14.6005005 154.889827,14.8392568 C154.56047,15.1035106 154.18955,15.3117207 153.792058,15.455473 C154.246606,15.5647239 154.677488,15.7552419 155.063769,16.0177703 C155.716053,16.4708344 156.181553,17.143975 156.374135,17.9126351 C156.469655,18.2825263 156.517711,18.6629937 156.517154,19.0449324 C156.517154,20.7035811 155.986308,21.945 154.924615,22.7691892 C153.862923,23.5933784 152.287135,24.0067568 150.19725,24.0093243 L143.479212,24.0093243 Z M147.534,14.25 L149.648365,14.25 C150.534827,14.25 151.166173,14.0882432 151.542404,13.7647297 C151.937747,13.4140113 152.147604,12.9005175 152.110615,12.3743919 C152.168979,11.7919059 151.939804,11.2174577 151.496019,10.8338514 C151.090154,10.5257432 150.429173,10.3678378 149.520808,10.3678378 L147.534,10.3678378 L147.534,14.25 Z M147.534,16.8958784 L147.534,20.8974324 L150.189519,20.8974324 C150.544406,20.9065896 150.898366,20.857137 151.237038,20.7510811 C151.498806,20.6662815 151.738878,20.5256528 151.940538,20.3389865 C152.114253,20.1711704 152.246562,19.965518 152.327077,19.7381757 C152.416102,19.4912445 152.459324,19.2302432 152.454635,18.9679054 C152.458254,18.6724539 152.4192,18.3780199 152.338673,18.0936486 C152.269223,17.8475587 152.143538,17.6208289 151.971462,17.4312162 C151.787127,17.2416923 151.560733,17.0979066 151.310481,17.0114189 C150.994799,16.9034999 150.662308,16.8526335 150.328673,16.8612162 L147.534,16.8958784 Z" fill="#FFFFFF" fill-rule="nonzero"></path>
                        <polygon fill="#FFFFFF" fill-rule="nonzero" points="162.195404 24.0093243 158.291365 24.0093243 158.291365 6.32391892 162.195404 6.32391892"></polygon>
                        <path d="M163.629462,17.6661486 C163.618778,16.8098524 163.749363,15.9576244 164.016,15.1435135 C164.258603,14.3994294 164.653457,13.7135664 165.175615,13.1292568 C165.695618,12.550112 166.340521,12.095842 167.061923,11.8005405 C168.731955,11.1636066 170.579237,11.1636066 172.249269,11.8005405 C172.972388,12.0947428 173.618783,12.5491328 174.139442,13.1292568 C174.660243,13.7145395 175.054926,14.4001059 175.299058,15.1435135 C175.565695,15.9576244 175.69628,16.8098524 175.685596,17.6661486 L175.685596,17.9049324 C175.693008,18.7622593 175.562508,19.6152321 175.299058,20.4314189 C175.056621,21.1732739 174.661688,21.8566512 174.139442,22.437973 C173.616282,23.0134066 172.970418,23.4647915 172.249269,23.7589865 C170.579237,24.3959205 168.731955,24.3959205 167.061923,23.7589865 C166.341244,23.4619056 165.694714,23.0109777 165.167885,22.437973 C164.644618,21.8573882 164.249553,21.1737843 164.008269,20.4314189 C163.741076,19.6161145 163.610482,18.7625282 163.621731,17.9049324 L163.629462,17.6661486 Z M167.521904,17.9049324 C167.520302,18.3446689 167.553909,18.783832 167.622404,19.2182432 C167.676502,19.5880432 167.792806,19.9461048 167.966423,20.2773649 C168.296941,20.9125724 168.973904,21.292171 169.690385,21.2440541 C170.392899,21.283477 171.051903,20.9037316 171.367962,20.2773649 C171.539854,19.9453869 171.656063,19.5876186 171.711981,19.2182432 C171.783755,18.7841738 171.818667,18.3448473 171.816346,17.9049324 L171.816346,17.6661486 C171.818765,17.2342 171.786451,16.8027523 171.719712,16.3759459 C171.665543,16.0031998 171.54789,15.6424067 171.371827,15.3091216 C171.214042,15.016473 170.98554,14.7676219 170.706981,14.5850676 C170.394839,14.3945624 170.032939,14.3007295 169.667192,14.315473 C169.307702,14.3022433 168.952415,14.396106 168.646731,14.5850676 C168.371664,14.7682226 168.147069,15.0171615 167.993481,15.3091216 C167.820848,15.6438393 167.703386,16.0040499 167.645596,16.3759459 C167.574264,16.8023005 167.53935,17.2339147 167.541231,17.6661486 L167.521904,17.9049324 Z" fill="#FFFFFF" fill-rule="nonzero"></path>
                        <path d="M182.221962,21.2440541 C182.687976,21.2731793 183.145784,21.1118594 183.489808,20.7972973 C183.804931,20.4654564 183.964933,20.0165588 183.930462,19.5610135 L187.58325,19.5610135 C187.598956,20.2234919 187.466937,20.8811896 187.196712,21.4866892 C186.939745,22.0513032 186.564061,22.5543373 186.095077,22.9617568 C185.604613,23.3843421 185.036079,23.7074783 184.421365,23.9130405 C183.747323,24.1372419 183.040785,24.2491488 182.330192,24.2442568 C181.442053,24.2639345 180.559688,24.0972875 179.740385,23.7551351 C179.038644,23.4525169 178.412917,22.9987362 177.908192,22.4264189 C177.409007,21.8366951 177.036683,21.1511162 176.814288,20.4121622 C176.55572,19.602773 176.425309,18.7581824 176.42775,17.9087838 L176.42775,17.6468919 C176.425323,16.7949722 176.555724,15.9478465 176.814288,15.1358108 C177.038526,14.3979899 177.412134,13.7137808 177.912058,13.1254054 C178.410132,12.5525377 179.03099,12.0984558 179.728788,11.7966892 C180.535708,11.4591668 181.405035,11.2951194 182.279942,11.3152703 C183.011112,11.305548 183.738783,11.4174915 184.432962,11.6464865 C185.05299,11.8513656 185.623117,12.1832788 186.106673,12.6208784 C186.583119,13.0562683 186.954458,13.5934786 187.192846,14.1922297 C187.460989,14.8659014 187.59237,15.5858726 187.579385,16.310473 L183.926596,16.310473 C183.926141,16.0507435 183.893687,15.792052 183.829962,15.5402027 C183.769857,15.3067905 183.660482,15.0888345 183.509135,14.9008784 C183.361197,14.7186285 183.17347,14.5724172 182.96025,14.4733784 C182.717294,14.3652849 182.453166,14.3126511 182.187173,14.3193243 C181.844157,14.3016735 181.504769,14.3963573 181.220827,14.5889189 C180.973111,14.776726 180.779729,15.0265452 180.660346,15.312973 C180.520446,15.6535104 180.433129,16.0131991 180.401365,16.3797973 C180.357172,16.8045859 180.335238,17.2313815 180.335654,17.6584459 L180.335654,17.9203378 C180.334854,18.353818 180.356788,18.7870438 180.401365,19.2182432 C180.434012,19.5822075 180.521312,19.9392264 180.660346,20.2773649 C180.779587,20.5639833 180.977951,20.8110386 181.232423,20.9898649 C181.528319,21.1736588 181.873762,21.262395 182.221962,21.2440541 Z" fill="#FFFFFF" fill-rule="nonzero"></path>
                        <polygon fill="#FFFFFF" fill-rule="nonzero" points="193.775596 19.3684459 192.677827 20.4622297 192.677827 24.0093243 188.785385 24.0093243 188.785385 6.31236486 192.677827 6.31236486 192.677827 15.7058108 193.064365 15.1897297 196.005923 11.5540541 200.671442 11.5540541 196.295827 16.6763514 200.961346 24.0093243 196.500692 24.0093243"></polygon>
                        <path d="M88.0032115,37.7432432 L83.1057692,37.7432432 L83.1057692,44.7218919 L81.6717115,44.7218919 L81.6717115,27.9415541 L87.1373654,27.9415541 C87.940037,27.9298568 88.7399656,28.0375979 89.5107115,28.2612162 C90.1700631,28.4523507 90.7831004,28.7761071 91.3119808,29.2125 C91.8153087,29.627458 92.2127168,30.1554117 92.4715962,30.7530405 C92.7448697,31.4252393 92.8764425,32.1462627 92.8581346,32.8712838 C92.8605893,33.3951175 92.7756834,33.9157183 92.6068846,34.4118243 C92.443756,34.8882481 92.2006495,35.3336275 91.8879231,35.7289865 C91.5796593,36.1251836 91.2073608,36.467496 90.7862885,36.7418919 C90.3501619,37.0302179 89.873349,37.2521823 89.3715577,37.400473 L93.5770962,44.525473 L93.5770962,44.6756757 L92.0618654,44.6756757 L88.0032115,37.7432432 Z M83.1057692,36.5146622 L87.4736538,36.5146622 C88.062122,36.5274746 88.6475239,36.4267744 89.1976154,36.2181081 C89.6648517,36.0447951 90.0911934,35.7773323 90.45,35.4324324 C90.7771674,35.1036254 91.0313328,34.7099839 91.1960192,34.277027 C91.3598532,33.8370118 91.4436259,33.3714136 91.4434038,32.9020946 C91.4492262,32.3756674 91.3547881,31.8529164 91.1650962,31.3615541 C90.984634,30.9168325 90.7011926,30.5209274 90.3379038,30.2061486 C89.9464801,29.8675813 89.4882734,29.6143836 88.99275,29.4628378 C88.3984359,29.2795498 87.7787474,29.1911585 87.1566923,29.2009459 L83.1057692,29.2009459 L83.1057692,36.5146622 Z" fill="#FFFFFF" fill-rule="nonzero"></path>
                        <path d="M100.782173,44.9337162 C100.006945,44.9412302 99.2389127,44.7850312 98.5286538,44.4754054 C97.8562344,44.1825477 97.2530861,43.7521669 96.7583077,43.2121622 C96.2505863,42.6509074 95.8567938,41.9969694 95.5986923,41.2864865 C95.3141459,40.5000822 95.1740452,39.6690526 95.1850962,38.8331757 L95.1850962,38.3363514 C95.172348,37.4484722 95.3189606,36.5654689 95.6180192,35.7289865 C95.8720427,34.9969595 96.2658176,34.3208178 96.7776346,33.7378378 C97.2523725,33.2012282 97.8325417,32.7673533 98.4822692,32.4630405 C99.1213215,32.1663802 99.8181876,32.0138366 100.523192,32.0162838 C101.249149,32.0039221 101.969172,32.148455 102.633692,32.4399324 C103.231643,32.7151245 103.760005,33.1204858 104.179846,33.6261486 C104.61479,34.1600366 104.940469,34.7737031 105.138462,35.4324324 C105.361514,36.1743977 105.470976,36.9456394 105.463154,37.7201351 L105.463154,38.5635811 L96.5534423,38.5635811 L96.5534423,38.825473 C96.5490503,39.4802893 96.6548828,40.131205 96.8665385,40.7511486 C97.057797,41.3250068 97.3554274,41.8580127 97.7439808,42.3225 C98.1161532,42.7644062 98.5769827,43.1238601 99.0968654,43.3777703 C99.6405724,43.6378181 100.237086,43.7696026 100.840154,43.7629054 C101.521464,43.7814736 102.198128,43.645842 102.819231,43.3662162 C103.428651,43.062332 103.958175,42.6204661 104.365385,42.0760135 L105.231231,42.7345946 C105.016597,43.0394911 104.774665,43.3243731 104.508404,43.5857432 C104.225312,43.8618613 103.905333,44.0977347 103.557519,44.2866892 C103.170905,44.4957586 102.759154,44.6549434 102.332192,44.7604054 C101.82493,44.8831198 101.304116,44.941353 100.782173,44.9337162 Z M100.530923,33.1909459 C99.5245962,33.1774568 98.5617196,33.5988539 97.8908654,34.3463514 C97.5318059,34.7357063 97.245163,35.1856277 97.0443462,35.6750676 C96.8175265,36.2258555 96.6679471,36.8051532 96.5998269,37.3966216 L104.098673,37.3966216 L104.098673,37.2425676 C104.084902,36.7286545 103.999031,36.2191887 103.843558,35.7289865 C103.698955,35.2598039 103.471164,34.8202259 103.170981,34.4310811 C102.871415,34.055351 102.494432,33.7480302 102.065481,33.5298649 C101.588965,33.2949959 101.062414,33.1787032 100.530923,33.1909459 Z" fill="#FFFFFF" fill-rule="nonzero"></path>
                        <path d="M115.188462,41.5368243 C115.188456,41.2742004 115.14268,41.0135721 115.053173,40.7665541 C114.952304,40.4885206 114.78203,40.2406635 114.558404,40.0463514 C114.2557,39.7818909 113.912502,39.5673583 113.541808,39.4108784 C112.996931,39.181784 112.429497,39.0101066 111.848769,38.8986486 C111.219956,38.7708467 110.600178,38.6023132 109.993385,38.3941216 C109.504265,38.2320722 109.040891,38.0012264 108.617308,37.7085811 C108.262348,37.454422 107.972366,37.1206361 107.770788,36.7341892 C107.564318,36.3311396 107.457,35.8849473 107.457692,35.4324324 C107.455395,34.976936 107.559964,34.5272074 107.763058,34.1191216 C107.972992,33.6990435 108.272446,33.3296997 108.6405,33.0368919 C109.055593,32.7125227 109.525543,32.4647053 110.028173,32.3051351 C110.620308,32.1173779 111.239037,32.0263362 111.860365,32.0355405 C112.515432,32.0273153 113.167695,32.1221999 113.793058,32.3166892 C114.322249,32.4790793 114.815516,32.7405029 115.246442,33.0869595 C115.646271,33.4073405 115.96751,33.814347 116.185731,34.277027 C116.396902,34.7386917 116.503783,35.240917 116.498827,35.7482432 L115.111154,35.7482432 C115.108582,35.4222154 115.036097,35.1005013 114.898558,34.8046622 C114.751401,34.4917683 114.537737,34.2144878 114.272365,33.992027 C113.97143,33.7377926 113.627093,33.5395067 113.255769,33.4066216 C112.811459,33.2570057 112.344775,33.184066 111.875827,33.1909459 C111.408452,33.1808793 110.942501,33.2459016 110.495885,33.3835135 C110.154202,33.491542 109.836607,33.6641468 109.560462,33.8918919 C109.119398,34.2559928 108.863143,34.7962657 108.860827,35.3669595 C108.855082,35.629373 108.898336,35.8905648 108.988385,36.1372297 C109.090159,36.3900579 109.260039,36.6099671 109.479288,36.7727027 C109.787547,37.0046427 110.13064,37.1866146 110.495885,37.3118919 C111.052446,37.5128318 111.621943,37.6762412 112.200519,37.8010135 C112.864408,37.9510082 113.516731,38.1479253 114.152538,38.3902703 C114.64231,38.5750163 115.100086,38.8349103 115.509288,39.1605405 C115.85023,39.431811 116.122891,39.7786534 116.305558,40.1734459 C116.48787,40.5883545 116.577553,41.0377694 116.568404,41.4906081 C116.573951,41.9794857 116.462655,42.4626605 116.243712,42.9002027 C116.023496,43.3302096 115.707498,43.7043418 115.319885,43.9939865 C114.880819,44.3155319 114.387176,44.5555864 113.862635,44.7026351 C113.243139,44.8789141 112.601217,44.9645389 111.957,44.9568243 C111.243941,44.9684927 110.53373,44.8644291 109.854231,44.6487162 C109.291844,44.4741343 108.767368,44.1958648 108.308077,43.8283784 C107.910345,43.50439 107.589567,43.0966533 107.368788,42.6344595 C107.161969,42.1882373 107.060169,41.7008439 107.071154,41.2094595 L108.458827,41.2094595 C108.472451,41.645307 108.606179,42.0690157 108.845365,42.4341892 C109.062298,42.7485986 109.34603,43.0115772 109.676423,43.2044595 C110.018766,43.4021354 110.390695,43.5438652 110.778058,43.6242568 C111.171993,43.7078099 111.573567,43.7504029 111.976327,43.7513514 C112.445526,43.7586375 112.913203,43.6963339 113.364,43.5664865 C113.726806,43.4607976 114.068247,43.2926524 114.372865,43.0696622 C114.631282,42.8827258 114.842926,42.6389017 114.991327,42.3571622 C115.121097,42.1030506 115.188651,41.82194 115.188462,41.5368243 Z" fill="#FFFFFF" fill-rule="nonzero"></path>
                        <path d="M124.044058,44.9337162 C123.26875,44.9420512 122.500547,44.7858173 121.790538,44.4754054 C121.116388,44.1836207 120.511765,43.7531273 120.016327,43.2121622 C119.507088,42.6520273 119.113107,41.9977763 118.856712,41.2864865 C118.570849,40.5003234 118.429438,39.6692869 118.43925,38.8331757 L118.43925,38.3363514 C118.426502,37.4484722 118.573114,36.5654689 118.872173,35.7289865 C119.129238,34.998351 119.522693,34.3227588 120.031788,33.7378378 C120.514113,33.1995792 121.102191,32.765693 121.759615,32.4630405 C122.398952,32.1672194 123.095628,32.0147174 123.800538,32.0162838 C124.527794,32.0033636 125.249195,32.1479085 125.914904,32.4399324 C126.512514,32.7156854 127.040759,33.1209577 127.461058,33.6261486 C127.896344,34.1606637 128.22086,34.7759218 128.415808,35.4362838 C128.630932,36.1860437 128.732552,36.9635943 128.717308,37.7432432 L128.717308,38.5866892 L119.826923,38.5866892 L119.826923,38.8485811 C119.823151,39.5030386 119.927627,40.1536438 120.136154,40.7742568 C120.328987,41.3474241 120.626462,41.8801523 121.013596,42.3456081 C121.386557,42.7867004 121.847202,43.1460099 122.366481,43.4008784 C122.911543,43.660979 123.509322,43.7927508 124.113635,43.7860135 C124.787845,43.7997347 125.456454,43.6614955 126.069519,43.3816216 C126.680305,43.0798156 127.210277,42.6375758 127.615673,42.0914189 L128.481519,42.75 C128.268264,43.0548504 128.027618,43.3397404 127.762558,43.6011486 C127.470216,43.8749906 127.141085,44.1070087 126.784615,44.2905405 C126.398306,44.500264 125.986468,44.6594821 125.559288,44.7642568 C125.063215,44.8831121 124.554232,44.9400354 124.044058,44.9337162 Z M123.788942,33.1909459 C123.287688,33.1868118 122.791174,33.2878536 122.331692,33.4875 C121.883106,33.6892806 121.480611,33.9802267 121.148885,34.3425 C120.789734,34.7310397 120.504236,35.1812209 120.306231,35.6712162 C120.075894,36.2208344 119.926184,36.8006349 119.861712,37.3927703 L127.360558,37.3927703 L127.360558,37.2425676 C127.346787,36.7286545 127.260916,36.2191887 127.105442,35.7289865 C126.961084,35.2589524 126.731848,34.8191123 126.429,34.4310811 C126.129435,34.055351 125.752452,33.7480302 125.3235,33.5298649 C124.847139,33.2945578 124.320479,33.1782408 123.788942,33.1909459 Z" fill="#FFFFFF" fill-rule="nonzero"></path>
                        <path d="M138.844615,44.7026351 C138.758269,44.452603 138.697405,44.1945453 138.662942,43.9323649 C138.620423,43.6204054 138.593365,43.3045946 138.577904,42.9810811 C138.359664,43.2629796 138.1122,43.5211637 137.839615,43.7513514 C137.545006,43.9939928 137.223351,44.2020504 136.881,44.3714189 C136.510628,44.55416 136.121938,44.6974532 135.721385,44.7989189 C135.271274,44.909894 134.80898,44.9642362 134.345308,44.9606757 C133.78134,44.9676666 133.220382,44.8777701 132.687058,44.6949324 C132.217827,44.5337463 131.785515,44.2810612 131.415346,43.9516216 C131.069878,43.6380051 130.793476,43.2563809 130.603615,42.8308784 C130.184468,41.8503488 130.221248,40.7354476 130.704115,39.7844595 C130.977101,39.2860479 131.365339,38.859612 131.836673,38.540473 C132.385305,38.1796983 132.993893,37.9188905 133.634077,37.7702027 C134.410731,37.5816165 135.208096,37.4910418 136.007423,37.5006081 L138.574038,37.5006081 L138.574038,36.0447973 C138.615808,35.2577546 138.314235,34.4911144 137.746846,33.9419595 C137.197962,33.4284459 136.39525,33.1716892 135.338712,33.1716892 C134.884422,33.1680398 134.432198,33.2329652 133.997423,33.3642568 C133.616463,33.4822846 133.259282,33.666093 132.942173,33.9072973 C132.657113,34.1223938 132.421255,34.3954683 132.250269,34.7083784 C132.08483,35.0052533 131.99834,35.3393518 131.999019,35.6789189 L130.615212,35.6789189 C130.61544,35.2056143 130.733652,34.7397769 130.959231,34.3232432 C131.203779,33.8764101 131.536415,33.4834126 131.937173,33.1678378 C132.389924,32.8089743 132.901134,32.5301977 133.448538,32.3436486 C134.079891,32.1324384 134.74234,32.0282895 135.408288,32.0355405 C136.028259,32.0297659 136.645676,32.1154232 137.240481,32.2897297 C137.768475,32.4437175 138.258282,32.7060983 138.678404,33.06 C139.084367,33.4045995 139.404567,33.8383325 139.613827,34.3270946 C139.848815,34.8877705 139.96337,35.4912606 139.950115,36.0987162 L139.950115,42.1299324 C139.950115,42.3456081 139.957846,42.5689865 139.973308,42.8000676 C139.973308,43.0272973 140.011962,43.2506757 140.04675,43.4663514 C140.081538,43.682027 140.124058,43.8861486 140.170442,44.0825676 C140.208992,44.2573758 140.262,44.4287042 140.328923,44.5947973 L140.328923,44.7334459 L138.844615,44.7026351 Z M134.515385,43.7128378 C134.986159,43.7163754 135.454935,43.6515039 135.906923,43.5202703 C136.317474,43.404163 136.708323,43.2276216 137.066538,42.9964865 C137.404016,42.7849044 137.708722,42.5254174 137.971038,42.2262162 C138.219439,41.9357717 138.425079,41.6115737 138.581769,41.2633784 L138.581769,38.5135135 L136.212288,38.5135135 C135.574568,38.5056639 134.93797,38.5689634 134.314385,38.7022297 C133.814537,38.8055073 133.335229,38.9902886 132.895788,39.2491216 C132.536041,39.4644174 132.233722,39.7629964 132.014481,40.119527 C131.807438,40.4691252 131.701735,40.8690746 131.709115,41.2749324 C131.698421,41.9304392 131.97336,42.5583959 132.462865,42.9964865 C132.720568,43.2254177 133.02149,43.4008639 133.348038,43.5125676 C133.722175,43.6476967 134.117435,43.7155076 134.515385,43.7128378 Z" fill="#FFFFFF" fill-rule="nonzero"></path>
                        <path d="M148.929404,33.4181757 C148.620497,33.3645692 148.307538,33.3375102 147.993981,33.3372973 C147.561087,33.3313857 147.130554,33.4017941 146.722269,33.5452703 C146.35801,33.6789724 146.020379,33.8758609 145.725,34.1268243 C145.433813,34.3786151 145.188033,34.6782118 144.998308,35.0126351 C144.79384,35.3764409 144.636674,35.7646952 144.530596,36.1680405 L144.530596,44.7218919 L143.154519,44.7218919 L143.154519,32.2473649 L144.507404,32.2473649 L144.530596,34.2269595 C144.838104,33.5751477 145.314437,33.0167903 145.910538,32.6093919 C146.544163,32.1989417 147.288862,31.9919357 148.044231,32.0162838 C148.219183,32.0167095 148.393773,32.0321722 148.566058,32.0625 C148.698578,32.0818069 148.828332,32.1167131 148.952596,32.1664865 L148.929404,33.4181757 Z" fill="#FFFFFF" fill-rule="nonzero"></path>
                        <path d="M155.044442,43.7706081 C155.473171,43.7711674 155.899451,43.7062236 156.308423,43.5780405 C156.700091,43.4585715 157.066786,43.2693654 157.390731,43.0195946 C157.707705,42.7720813 157.970747,42.4628193 158.163808,42.1106757 C158.377145,41.724763 158.498803,41.295237 158.519423,40.8551351 L159.84525,40.8551351 C159.820963,41.426872 159.66911,41.9860312 159.400731,42.4919595 C159.137934,42.9861389 158.780785,43.4244128 158.349346,43.7821622 C157.901399,44.1507071 157.390844,44.4363627 156.841846,44.6256081 C155.49863,45.0885909 154.029342,45.0280515 152.729077,44.4561486 C152.079906,44.1464279 151.509147,43.6949013 151.059231,43.1351351 C150.594786,42.5500283 150.249461,41.8802012 150.042635,41.1632432 C149.809639,40.3677241 149.695034,39.5424509 149.702481,38.7137838 L149.702481,38.2323649 C149.695412,37.4049868 149.810013,36.5810385 150.042635,35.7867568 C150.248687,35.0721713 150.591242,34.4039339 151.0515,33.8187162 C151.501792,33.2593258 152.072457,32.8078729 152.721346,32.4977027 C153.447762,32.1640151 154.240857,31.9993868 155.040577,32.0162838 C155.676047,32.0113662 156.307615,32.115594 156.907558,32.3243919 C157.461016,32.5204688 157.970541,32.8227191 158.407327,33.2140541 C158.842366,33.6042602 159.191195,34.0803557 159.431654,34.6120946 C159.691145,35.1913479 159.835536,35.8152089 159.856846,36.4491892 L158.531019,36.4491892 C158.508548,35.9789938 158.395698,35.5174674 158.198596,35.0896622 C157.838225,34.30747 157.176173,33.7033709 156.362538,33.4143243 C155.938493,33.2630045 155.490985,33.1873869 155.040577,33.1909459 C154.408414,33.1718111 153.781798,33.3136465 153.219981,33.6030405 C152.72985,33.872324 152.312166,34.2554629 152.002385,34.7199324 C151.676144,35.2115064 151.442957,35.7584223 151.314346,36.3336486 C151.16879,36.9560922 151.096151,37.5932513 151.097885,38.2323649 L151.097885,38.7137838 C151.095136,39.361852 151.167775,40.0080543 151.314346,40.6394595 C151.440663,41.2141335 151.671211,41.7610035 151.994654,42.2531757 C152.307565,42.7157612 152.727909,43.0962642 153.219981,43.3623649 C153.783482,43.6505831 154.411364,43.7910787 155.044442,43.7706081 Z" fill="#FFFFFF" fill-rule="nonzero"></path>
                        <path d="M163.505769,34.3540541 C163.725661,34.0047095 163.985049,33.6816517 164.278846,33.3912162 C164.84556,32.8167814 165.553114,32.3998978 166.331365,32.1818919 C166.743034,32.0689875 167.168377,32.0132586 167.595346,32.0162838 C168.164819,32.0077001 168.731756,32.0936032 169.272923,32.270473 C169.75192,32.4290778 170.182784,32.7060027 170.525308,33.0754054 C170.887649,33.484705 171.151987,33.9706368 171.298385,34.4965541 C171.493452,35.1787904 171.58466,35.8863315 171.568962,36.5955405 L171.568962,44.6833784 L170.192885,44.6833784 L170.192885,36.5878378 C170.206326,36.0437392 170.13593,35.5008052 169.984154,34.977973 C169.870334,34.5916061 169.667863,34.2369198 169.39275,33.9419595 C169.137026,33.6792163 168.817447,33.4868383 168.465058,33.3835135 C168.068396,33.2682773 167.656739,33.212464 167.243596,33.2179054 C166.785785,33.2107734 166.331133,33.2945655 165.906173,33.4643919 C165.515782,33.6217416 165.156032,33.8459324 164.843192,34.1268243 C164.532938,34.4034248 164.263553,34.7224014 164.043058,35.0742568 C163.824711,35.4197331 163.644565,35.7877579 163.505769,36.1718919 L163.505769,44.7026351 L162.129692,44.7026351 L162.129692,27.0172297 L163.505769,27.0172297 L163.505769,34.3540541 Z" fill="#FFFFFF" fill-rule="nonzero"></path>
                    </g>
                </g>
            </g>
        </g>
    </g>
</svg>