<?xml version="1.0" encoding="UTF-8"?>
<svg width="336px" height="45px" viewBox="0 0 336 45" version="1.1" xmlns="http://www.w3.org/2000/svg" xmlns:xlink="http://www.w3.org/1999/xlink">
    <!-- Generator: Sketch 49.2 (51160) - http://www.bohemiancoding.com/sketch -->
    <title>logo-bbr-white-long</title>
    <desc>Created with Sketch.</desc>
    <defs>
        <linearGradient x1="29.0124758%" y1="50.0034019%" x2="100.04302%" y2="50.0034019%" id="linearGradient-1">
            <stop stop-color="#166BEE" offset="0%"></stop>
            <stop stop-color="#0F52BA" offset="100%"></stop>
        </linearGradient>
    </defs>
    <g id="Page-1" stroke="none" stroke-width="1" fill="none" fill-rule="evenodd">
        <g id="v3" transform="translate(-170.000000, -97.000000)">
            <g id="NAVIGATION" transform="translate(0.000000, 66.000000)">
                <g id="logo-bbr-white-long" transform="translate(170.000000, 31.000000)">
                    <g id="Shape">
                        <polygon fill="#333333" fill-rule="nonzero" points="28.2501441 29.9824468 14.4325072 22.562234 14.4325072 8.3106383 28.2501441 15.7308511"></polygon>
                        <polygon fill="#1A1A1A" fill-rule="nonzero" points="28.2501441 29.9824468 42.067781 22.562234 42.067781 8.3106383 28.2501441 15.7308511"></polygon>
                        <polygon fill="#666666" fill-rule="nonzero" points="28.2501441 0.895212766 14.4325072 8.3106383 28.2501441 15.7308511 42.067781 8.3106383"></polygon>
                        <path d="M28.2501441,44.5212766 C28.1538907,44.5224845 28.0589137,44.4994183 27.9741787,44.4542553 L14.1565418,37.6468085 L0.319538905,30.2218085 C0.119251691,30.1146067 -0.00396310488,29.9060125 1.34381438e-15,29.6808511 L1.34381438e-15,15.4388298 C0.004593747,15.2233944 0.126896254,15.0273384 0.319538905,14.9265957 L27.9596542,0.0718085106 C28.1413172,-0.0235126455 28.358971,-0.0235126455 28.540634,0.0718085106 L42.3631124,7.48723404 C42.4261368,7.5211099 42.4820142,7.56661083 42.5277233,7.6212766 C42.5514785,7.65132138 42.5725382,7.68335767 42.5906628,7.71702128 C42.6300601,7.79460974 42.6531193,7.87929836 42.6584438,7.96595745 L42.6584438,36.4930851 C42.6577533,36.7145367 42.5353425,36.9181021 42.3389049,37.0244681 L28.5648415,44.4446809 C28.4690275,44.4982564 28.3601611,44.524754 28.2501441,44.5212766 Z M15.7542363,37.0819149 L27.6401153,42.9367021 L27.6401153,30.681383 L15.7542363,37.0819149 Z M28.8601729,30.0494681 L28.8601729,42.893617 L41.4480692,36.1340426 L41.4480692,23.2898936 L28.8601729,30.0494681 Z M1.22489914,29.3265957 L13.8127954,36.0909574 L13.8127954,23.2132979 L1.22489914,16.4537234 L1.22489914,29.3265957 Z M15.042536,23.2132979 L15.042536,36.0861702 L27.6304323,29.3026596 L27.6304323,16.4537234 L15.042536,23.2132979 Z M28.8601729,16.4154255 L28.8601729,28.6468085 L40.7460519,22.2654255 L28.8601729,16.4154255 Z M1.89302594,15.4579787 L14.4325072,22.1601064 L26.967147,15.4579787 L14.4325072,8.70797872 L1.89302594,15.4579787 Z M29.5767147,15.4579787 L41.4577522,21.2648936 L41.4577522,9.03829787 L29.5767147,15.4579787 Z M15.7155043,8.02340426 L28.2501441,14.7255319 L40.7896254,8.02340426 L28.2501441,1.29255319 L15.7155043,8.02340426 Z" fill="url(#linearGradient-1)" fill-rule="nonzero"></path>
                        <path d="M64.5904323,31.418617 L64.5904323,10.5797872 L72.162536,10.5797872 C73.3371929,10.5684289 74.5095141,10.6856314 75.658098,10.9292553 C76.5865979,11.1245118 77.4710576,11.4863372 78.2676657,11.9968085 C78.95094,12.4510571 79.5071522,13.0685474 79.8847262,13.7920213 C80.2777736,14.5819081 80.4720998,15.4539653 80.4511816,16.3340426 C80.4528919,16.7982276 80.3992655,17.2609943 80.2914121,17.712766 C80.1846204,18.1538364 80.0116361,18.576609 79.7782133,18.9670213 C79.5343987,19.367264 79.2233067,19.7234385 78.8583285,20.0202128 C78.4451597,20.3477451 77.9807358,20.6064598 77.4833429,20.7861702 C78.0532384,20.9203299 78.5932216,21.1572719 79.076196,21.4851064 C79.4898623,21.7717054 79.8474755,22.1301766 80.1316427,22.5430851 C80.3997895,22.9396187 80.5978798,23.378303 80.717464,23.8404255 C80.8374151,24.3001423 80.8976121,24.7731029 80.8965994,25.2478723 C80.8965994,27.3095745 80.2317003,28.8526596 78.901902,29.8771277 C77.5721037,30.9015957 75.5983862,31.4154255 72.9807493,31.418617 L64.5904323,31.418617 Z M69.6740058,19.268617 L72.3223055,19.268617 C73.4326225,19.268617 74.2234006,19.0675532 74.6946398,18.6654255 C75.1855811,18.2268625 75.4460868,17.5899549 75.4014986,16.937234 C75.4766178,16.2139127 75.1912875,15.4996537 74.6365418,15.0223404 C74.1233429,14.6393617 73.3002882,14.4430851 72.162536,14.4430851 L69.6740058,14.4430851 L69.6740058,19.268617 Z M69.6740058,22.5574468 L69.6740058,27.5505319 L73.0001153,27.5505319 C73.4444802,27.5595254 73.8874353,27.4981097 74.3121614,27.368617 C74.6394033,27.2618331 74.9398169,27.0871959 75.1933141,26.856383 C75.4108962,26.6477875 75.5766166,26.3921612 75.677464,26.1095745 C75.7861094,25.8101893 75.8402034,25.4941261 75.8372334,25.1760638 C75.8417665,24.8088173 75.7928506,24.4428355 75.6919885,24.0893617 C75.599629,23.7805136 75.4335873,23.4981229 75.2078386,23.2659574 C74.9796281,23.0294525 74.6973839,22.8505124 74.3847839,22.7441489 C73.989285,22.6104036 73.5729036,22.5471876 73.1550432,22.5574468 L69.6740058,22.5574468 Z" fill="#FFFFFF" fill-rule="nonzero"></path>
                        <polygon fill="#FFFFFF" fill-rule="nonzero" points="88.0378098 31.418617 83.1478963 31.418617 83.1478963 9.4356383 88.0378098 9.4356383"></polygon>
                        <path d="M99.2507205,31.418617 C99.1383771,31.2145275 99.047526,30.9995702 98.9795965,30.7771277 C98.9069741,30.5473404 98.8440346,30.2984043 98.7859366,30.0303191 C97.8808201,31.1582835 96.4780393,31.7812994 95.0240922,31.7010638 C94.3262734,31.7059027 93.6330417,31.5892283 92.9761383,31.356383 C92.3598921,31.1421073 91.7887725,30.8175564 91.2912968,30.3989362 C90.8083191,29.9933246 90.4159205,29.4928365 90.1390202,28.9292553 C89.8504246,28.341906 89.7045334,27.6960327 89.7129683,27.0430851 C89.6989834,26.3033497 89.8493811,25.5695952 90.1535447,24.893617 C90.4585092,24.2593605 90.9237509,23.7135934 91.5043228,23.3090426 C92.1967472,22.8383577 92.9716459,22.499081 93.7895101,22.3085106 C94.8631804,22.0580106 95.964208,21.9406189 97.0672046,21.9590426 L98.5729107,21.9590426 L98.5729107,21.1404255 C98.6021813,20.5879906 98.4511233,20.0408787 98.1420173,19.5797872 C97.7810775,19.1666531 97.23877,18.9539488 96.6895677,19.0101064 C96.2218256,18.9778867 95.7598148,19.1273018 95.4017291,19.4265957 C95.0751794,19.7683457 94.91141,20.2315112 94.9514697,20.7 L90.1099712,20.7 C90.1047651,20.0024889 90.2709071,19.3141567 90.594121,18.6941489 C90.9305267,18.0623616 91.4072263,17.5140822 91.9884726,17.0904255 C92.6431114,16.6175824 93.3751844,16.259697 94.1526225,16.0324468 C95.0700615,15.7635372 96.023234,15.6328153 96.9800576,15.6446809 C97.8588678,15.6365067 98.7343485,15.752574 99.5799424,15.9893617 C100.330561,16.196319 101.031784,16.5495113 101.642421,17.0281915 C102.223339,17.4959865 102.688637,18.0886917 103.002882,18.7611702 C103.340732,19.5140002 103.506061,20.3313813 103.487032,21.1547872 L103.487032,27.5074468 C103.487032,28.0148936 103.487032,28.4648936 103.530605,28.8239362 C103.551082,29.1454887 103.593134,29.4653416 103.656484,29.781383 C103.707946,30.0369338 103.779164,30.2882033 103.86951,30.5329787 C103.94748,30.7454365 104.041342,30.9518583 104.150317,31.1505319 L104.150317,31.3946809 L99.2507205,31.418617 Z M96.1957349,28.268617 C96.7269282,28.2896853 97.2525374,28.1547586 97.7062824,27.8808511 C98.0647585,27.668811 98.3616437,27.3686566 98.5680692,27.0095745 L98.5680692,24.5345745 L97.0333141,24.5345745 C96.6423067,24.5240655 96.2528629,24.5874329 95.885879,24.7212766 C95.5991298,24.8190443 95.3401743,24.9831809 95.1306052,25.2 C94.9424459,25.4073542 94.8049637,25.654669 94.7287608,25.9228723 C94.6449935,26.1993239 94.6025847,26.486407 94.6028818,26.775 C94.5874528,27.1789082 94.7520512,27.5691667 95.0531412,27.8425532 C95.3689933,28.1297071 95.7862691,28.2827125 96.2151009,28.268617 L96.1957349,28.268617 Z" fill="#FFFFFF" fill-rule="nonzero"></path>
                        <path d="M112.206571,27.981383 C112.790984,28.0185285 113.365673,27.8199008 113.799424,27.4308511 C114.192365,27.0175676 114.39098,26.4596852 114.346513,25.8941489 L118.921729,25.8941489 C118.941402,26.7176104 118.776044,27.5351292 118.437579,28.287766 C118.112376,28.9888989 117.640429,29.6138287 117.052911,30.1212766 C116.439318,30.6475657 115.727001,31.0493445 114.956542,31.3037234 C114.112391,31.5828331 113.227361,31.721945 112.337291,31.7154255 C111.230514,31.7399116 110.130717,31.536113 109.108012,31.1170213 C108.228461,30.7421094 107.445712,30.175945 106.817983,29.4606383 C106.187907,28.7340403 105.716493,27.8865294 105.433314,26.9712766 C105.109527,25.9651872 104.946186,24.9153721 104.949164,23.8595745 L104.949164,23.5340426 C104.946203,22.4751112 105.109531,21.4221449 105.433314,20.412766 C105.718515,19.4974538 106.186017,18.6478042 106.8083,17.9138298 C107.43499,17.2027353 108.213956,16.6385501 109.088646,16.262234 C110.097095,15.840466 111.184516,15.6348829 112.279193,15.6590426 C113.196833,15.6488614 114.109799,15.7896102 114.980749,16.0755319 C115.756881,16.331226 116.470776,16.7436763 117.077118,17.2867021 C117.670889,17.8304577 118.135501,18.4974932 118.437579,19.2398936 C118.773436,20.0772682 118.937994,20.9721933 118.921729,21.8728723 L114.346513,21.8728723 C114.348269,21.5498873 114.307583,21.2280451 114.225476,20.9154255 C114.152925,20.6252224 114.017465,20.3540732 113.828473,20.1207447 C113.643176,19.8942079 113.408044,19.7124671 113.14098,19.5893617 C112.836425,19.4557666 112.505773,19.3903775 112.17268,19.3978723 C111.743044,19.3759323 111.31795,19.4936244 110.962305,19.7329787 C110.65564,19.9512886 110.411975,20.2450299 110.255447,20.5851064 C110.078487,21.008112 109.967482,21.4552248 109.926225,21.9111702 C109.872576,22.4392728 109.846719,22.9697755 109.848761,23.5005319 L109.848761,23.8260638 C109.846124,24.3632044 109.871981,24.9001121 109.926225,25.4345745 C109.967408,25.8874405 110.078433,26.3314085 110.255447,26.7510638 C110.40152,27.1091554 110.648549,27.4182199 110.967147,27.6414894 C111.335002,27.8783521 111.76788,27.9970624 112.206571,27.981383 Z" fill="#FFFFFF" fill-rule="nonzero"></path>
                        <polygon fill="#FFFFFF" fill-rule="nonzero" points="126.67781 25.65 125.302824 27.0095745 125.302824 31.418617 120.427435 31.418617 120.427435 9.4212766 125.302824 9.4212766 125.302824 21.0973404 125.786974 20.4558511 129.461671 15.9319149 135.319885 15.9319149 129.834467 22.2989362 135.682997 31.3946809 130.095908 31.3946809"></polygon>
                        <path d="M143.017867,31.418617 L143.017867,10.5797872 L150.570605,10.5797872 C151.743674,10.5681532 152.914422,10.6853608 154.061326,10.9292553 C154.991672,11.1234336 155.877913,11.4853164 156.675735,11.9968085 C157.366773,12.4492446 157.931267,13.0666853 158.317003,13.7920213 C158.708378,14.5823217 158.901039,15.4543588 158.878617,16.3340426 C158.879506,16.7979119 158.827535,17.2604035 158.723689,17.712766 C158.617391,18.1547443 158.442648,18.5778231 158.205648,18.9670213 C157.963596,19.3671059 157.65412,19.7233056 157.290605,20.0202128 C156.877436,20.3477451 156.413012,20.6064598 155.91562,20.7861702 C156.48433,20.9194114 157.02289,21.1564496 157.503631,21.4851064 C157.919809,21.770343 158.279245,22.1289955 158.563919,22.5430851 C158.830455,22.9404967 159.02842,23.378903 159.149741,23.8404255 C159.269692,24.3001423 159.329889,24.7731029 159.328876,25.2478723 C159.328876,27.3095745 158.663977,28.8526596 157.334179,29.8771277 C156.00438,30.9015957 154.030663,31.4154255 151.413026,31.418617 L143.017867,31.418617 Z M148.101441,19.268617 L150.749741,19.268617 C151.860058,19.268617 152.650836,19.0675532 153.122075,18.6654255 C153.613016,18.2268625 153.873522,17.5899549 153.828934,16.937234 C153.901574,16.2142525 153.616678,15.5010807 153.063977,15.0223404 C152.550778,14.6393617 151.727723,14.4430851 150.589971,14.4430851 L148.101441,14.4430851 L148.101441,19.268617 Z M148.101441,22.5574468 L148.101441,27.5505319 L151.42755,27.5505319 C151.871915,27.5595254 152.31487,27.4981097 152.739597,27.368617 C153.066838,27.2618331 153.367252,27.0871959 153.620749,26.856383 C153.838331,26.6477875 154.004052,26.3921612 154.104899,26.1095745 C154.213545,25.8101893 154.267639,25.4941261 154.264669,25.1760638 C154.269202,24.8088173 154.220286,24.4428355 154.119424,24.0893617 C154.027064,23.7805136 153.861022,23.4981229 153.635274,23.2659574 C153.406234,23.0304495 153.124249,22.8516741 152.812219,22.7441489 C152.41672,22.6104036 152.000339,22.5471876 151.582478,22.5574468 L148.101441,22.5574468 Z" fill="#FFFFFF" fill-rule="nonzero"></path>
                        <polygon fill="#FFFFFF" fill-rule="nonzero" points="166.465245 31.418617 161.575331 31.418617 161.575331 9.4356383 166.465245 9.4356383"></polygon>
                        <path d="M168.261441,23.5292553 C168.248502,22.4664754 168.412059,21.4088009 168.745591,20.3984043 C169.05337,19.4752275 169.5475,18.6234486 170.19804,17.8946809 C170.85311,17.1756699 171.661832,16.6098589 172.565533,16.2382979 C174.657294,15.4465882 176.971064,15.4465882 179.062824,16.2382979 C179.966525,16.6098589 180.775247,17.1756699 181.430317,17.8946809 C182.080857,18.6234486 182.574988,19.4752275 182.882767,20.3984043 C183.214021,21.4093352 183.377521,22.4666381 183.366916,23.5292553 L183.366916,23.8308511 C183.378569,24.8966754 183.215057,25.957295 182.882767,26.9712766 C182.578498,27.8917044 182.083865,28.7394596 181.430317,29.4606383 C180.779859,30.178396 179.976144,30.7441747 179.077349,31.1170213 C176.985588,31.9087309 174.671818,31.9087309 172.580058,31.1170213 C171.675463,30.7490012 170.86508,30.1864559 170.207723,29.4702128 C169.553366,28.7496141 169.058629,27.9016812 168.755274,26.9808511 C168.420607,25.9674268 168.257034,24.906418 168.271124,23.8404255 L168.261441,23.5292553 Z M173.13683,23.8308511 C173.133304,24.3773137 173.173778,24.9231867 173.257867,25.4632979 C173.32491,25.9237681 173.472347,26.3692211 173.693602,26.7797872 C173.889183,27.1398758 174.176167,27.4434403 174.52634,27.6606383 C174.92121,27.8867921 175.372686,27.9979811 175.828703,27.981383 C176.707834,28.032259 177.532812,27.5593984 177.925072,26.7797872 C178.142052,26.3674313 178.289246,25.9227121 178.360807,25.4632979 C178.450706,24.9237491 178.494434,24.3776657 178.491527,23.8308511 L178.491527,23.5292553 C178.49194,22.994024 178.451479,22.4595258 178.37049,21.9303191 C178.302642,21.4669953 178.155279,21.0185291 177.934755,20.6042553 C177.738488,20.2395388 177.452002,19.9299128 177.102017,19.7042553 C176.710708,19.4682563 176.257667,19.351686 175.799654,19.3691489 C175.347783,19.3520365 174.901035,19.4687226 174.516657,19.7042553 C174.174705,19.9253024 173.894894,20.2283276 173.703285,20.5851064 C173.487058,21.0011609 173.339933,21.448903 173.26755,21.9111702 C173.178408,22.4395447 173.134679,22.9744346 173.13683,23.5101064 L173.13683,23.8308511 Z" fill="#FFFFFF" fill-rule="nonzero"></path>
                        <path d="M191.544207,27.981383 C192.128621,28.0185285 192.70331,27.8199008 193.137061,27.4308511 C193.531761,27.0183725 193.732168,26.4603922 193.688991,25.8941489 L198.259366,25.8941489 C198.279038,26.7176104 198.113681,27.5351292 197.775216,28.287766 C197.450047,28.9876455 196.979977,29.612273 196.395389,30.1212766 C195.779996,30.6475967 195.066093,31.049342 194.294179,31.3037234 C193.450028,31.5828331 192.564998,31.721945 191.674928,31.7154255 C190.56967,31.7405118 189.471329,31.5366773 188.45049,31.1170213 C187.568862,30.7433085 186.784281,30.1770162 186.15562,29.4606383 C185.525544,28.7340403 185.05413,27.8865294 184.770951,26.9712766 C184.457642,25.9633951 184.302525,24.9139601 184.311009,23.8595745 L184.311009,23.5340426 C184.302602,22.4765229 184.457707,21.4239445 184.770951,20.412766 C185.056152,19.4974538 185.523653,18.6478042 186.145937,17.9138298 C186.772627,17.2027353 187.551593,16.6385501 188.426282,16.262234 C189.434732,15.840466 190.522153,15.6348829 191.61683,15.6590426 C192.53447,15.6488614 193.447436,15.7896102 194.318386,16.0755319 C195.094989,16.3301969 195.809088,16.7427654 196.414755,17.2867021 C197.01013,17.8290833 197.475009,18.4965015 197.775216,19.2398936 C198.111073,20.0772682 198.275631,20.9721933 198.259366,21.8728723 L193.688991,21.8728723 C193.689222,21.5496748 193.646907,21.2278222 193.563112,20.9154255 C193.495434,20.6209692 193.363217,20.3447902 193.175793,20.106383 C192.990496,19.8798462 192.755364,19.6981054 192.4883,19.575 C192.183745,19.4414049 191.853093,19.3760158 191.52,19.3835106 C191.091712,19.360119 190.66769,19.477986 190.314467,19.718617 C190.000803,19.9393504 189.751895,20.2383266 189.593084,20.5851064 C189.416124,21.008112 189.305119,21.4552248 189.263862,21.9111702 C189.215447,22.3898936 189.186398,22.9452128 189.186398,23.5005319 L189.186398,23.8260638 C189.186398,24.4005319 189.215447,24.9367021 189.263862,25.4345745 C189.305045,25.8874405 189.41607,26.3314085 189.593084,26.7510638 C189.740949,27.1094912 189.989616,27.4185016 190.309625,27.6414894 C190.67572,27.8782646 191.107039,27.9970115 191.544207,27.981383 Z" fill="#FFFFFF" fill-rule="nonzero"></path>
                        <polygon fill="#FFFFFF" fill-rule="nonzero" points="206.020288 25.65 204.645303 27.0095745 204.645303 31.418617 199.765072 31.418617 199.765072 9.4212766 204.645303 9.4212766 204.645303 21.0973404 205.129452 20.4558511 208.80415 15.9319149 214.65268 15.9319149 209.152738 22.2989362 215.001268 31.3946809 209.433545 31.3946809"></polygon>
                        <path d="M231.302594,22.7441489 L225.178098,22.7441489 L225.178098,31.418617 L223.386744,31.418617 L223.386744,10.5797872 L230.232622,10.5797872 C231.238238,10.5667303 232.240185,10.7022682 233.205303,10.9819149 C234.031158,11.2194953 234.799004,11.6219248 235.461441,12.1643617 C236.092547,12.6795191 236.590443,13.3359402 236.91389,14.0792553 C237.256574,14.9146842 237.421388,15.8110001 237.39804,16.712234 C237.399556,17.3636286 237.291572,18.010743 237.078501,18.6271277 C236.875659,19.2189996 236.572809,19.7725871 236.182824,20.2643617 C235.7974,20.7594401 235.334929,21.1908739 234.81268,21.5425532 C234.2662,21.8993917 233.668973,22.1736829 233.040692,22.356383 L238.308242,31.2175532 L238.308242,31.4042553 L236.410375,31.4042553 L231.302594,22.7441489 Z M225.178098,21.2409574 L230.634467,21.2409574 C231.373469,21.2558551 232.108391,21.1290509 232.798617,20.8675532 C233.381762,20.6469537 233.912514,20.3095803 234.357579,19.8765957 C234.764949,19.466906 235.081531,18.977791 235.287147,18.4404255 C235.495325,17.8941452 235.601938,17.3151588 235.601844,16.731383 C235.609608,16.0769945 235.491306,15.4271274 235.253256,14.8164894 C235.028929,14.2559407 234.673942,13.755672 234.217176,13.356383 C233.725533,12.9374887 233.15205,12.623001 232.532334,12.4324468 C231.787056,12.2090098 231.011328,12.1008177 230.232622,12.1117021 L225.178098,12.1117021 L225.178098,21.2409574 Z" fill="#FFFFFF" fill-rule="nonzero"></path>
                        <path d="M247.308588,31.7010638 C246.339748,31.7051069 245.381043,31.5060518 244.495677,31.1170213 C243.652417,30.7501964 242.895615,30.2138191 242.273429,29.5420213 C241.637495,28.844381 241.144259,28.0315353 240.82098,27.1484043 C240.463746,26.17099 240.286649,25.138158 240.298098,24.0989362 L240.298098,23.5005319 C240.2849,22.3971041 240.468456,21.3000091 240.840346,20.2595745 C241.162963,19.3516832 241.65571,18.5120338 242.292795,17.7845745 C242.88798,17.1193951 243.614602,16.5817587 244.427896,16.2047872 C245.225683,15.8328066 246.097335,15.6414588 246.979366,15.6446809 C247.890845,15.6278104 248.794936,15.8092168 249.627666,16.1760638 C250.378716,16.5146871 251.041229,17.0191045 251.564265,17.6505319 C252.109449,18.3131611 252.515947,19.0763619 252.760115,19.8957447 C253.03904,20.819746 253.176129,21.7799092 253.166801,22.7441489 L253.166801,23.787766 L242.011988,23.787766 L242.011988,24.1180851 C242.007305,24.93196 242.139842,25.7409155 242.40415,26.5117021 C242.649598,27.2288876 243.030783,27.8933582 243.527378,28.4696809 C243.992711,29.0185824 244.570188,29.463966 245.221902,29.7765957 C245.901978,30.102491 246.649768,30.2664396 247.405418,30.2553191 C248.249544,30.2792927 249.088356,30.115701 249.860058,29.7765957 C250.62239,29.397387 251.285314,28.8484106 251.796657,28.1728723 L252.881153,28.9867021 C252.61365,29.3681797 252.310535,29.7239948 251.975793,30.0494681 C251.618209,30.3912721 251.216033,30.6842912 250.779942,30.9207447 C250.297163,31.1826036 249.780947,31.3790466 249.245187,31.5047872 C248.610638,31.6508821 247.959916,31.7168335 247.308588,31.7010638 Z M246.989049,17.1047872 C246.362147,17.0983137 245.741213,17.2256805 245.168646,17.4781915 C244.606549,17.7288794 244.101106,18.0886549 243.682305,18.5361702 C243.236149,19.0219112 242.878993,19.5807999 242.626859,20.187766 C242.343355,20.8722855 242.157596,21.5924942 242.074928,22.3276596 L251.467435,22.3276596 L251.467435,22.1409574 C251.44937,21.5022413 251.341834,20.8690858 251.147896,20.2595745 C250.965382,19.684274 250.680064,19.1459763 250.305476,18.6702128 C249.93231,18.2030826 249.461675,17.8209973 248.925648,17.55 C248.326484,17.2476829 247.661638,17.0948389 246.989049,17.1047872 Z" fill="#FFFFFF" fill-rule="nonzero"></path>
                        <path d="M265.338329,27.4787234 C265.338818,27.1526492 265.283152,26.8288732 265.173718,26.5212766 C265.042535,26.1781562 264.830017,25.8711613 264.554006,25.6260638 C264.173413,25.3005182 263.743816,25.0356352 263.280692,24.8409574 C262.598219,24.5561928 261.887493,24.3427977 261.160115,24.2042553 C260.372071,24.0451759 259.595693,23.8340647 258.836196,23.5723404 C258.222416,23.3693528 257.641801,23.0790733 257.112622,22.7106383 C256.665366,22.3976076 256.301542,21.9820107 256.052334,21.4994681 C255.799969,20.9871025 255.675455,20.4223978 255.689222,19.8526596 C255.687409,19.2865951 255.818328,18.7278206 256.0717,18.2202128 C256.33471,17.6994469 256.709832,17.2419282 257.17072,16.8797872 C257.690003,16.4756342 258.278812,16.1675009 258.908818,15.9702128 C259.650116,15.7347947 260.425165,15.620002 261.203689,15.6303191 C262.024491,15.6208369 262.841601,15.7404137 263.624438,15.9845745 C264.28957,16.1844306 264.909356,16.5095443 265.449683,16.9420213 C265.932586,17.3422917 266.320941,17.8423111 266.587435,18.4069149 C266.847715,18.9836476 266.979796,19.6088945 266.974755,20.2404255 L265.241499,20.2404255 C265.239535,19.8345012 265.146957,19.4340122 264.970375,19.0675532 C264.787863,18.6788465 264.521863,18.3341444 264.190893,18.0574468 C263.813011,17.7474675 263.381662,17.5074521 262.917579,17.3489362 C262.361849,17.1593795 261.77696,17.0670405 261.189164,17.0760638 C260.601778,17.0628718 260.016201,17.145357 259.455908,17.3202128 C259.028871,17.4566396 258.631467,17.670976 258.284265,17.9521277 C257.733116,18.4036326 257.412285,19.0731557 257.407954,19.7808511 C257.401427,20.1069841 257.455583,20.4315255 257.567723,20.7382979 C257.698662,21.0585522 257.916458,21.3368565 258.197118,21.5425532 C258.584178,21.8305692 259.013604,22.0582132 259.470432,22.2175532 C260.16797,22.4660109 260.881192,22.6691037 261.605533,22.8255319 C262.428484,23.0124859 263.23734,23.2556218 264.026282,23.5531915 C264.640929,23.7834427 265.21581,24.1064184 265.73049,24.5106383 C266.16633,24.8429954 266.520522,25.2684996 266.766571,25.7553191 C266.992772,26.2732523 267.103411,26.8333109 267.090951,27.3973404 C267.097899,28.0050159 266.958497,28.6056026 266.684265,29.1494681 C266.410189,29.6851127 266.014084,30.150523 265.527147,30.5090426 C264.978395,30.9077661 264.361862,31.2060924 263.706744,31.3898936 C262.930001,31.6046641 262.12638,31.7094305 261.319885,31.7010638 C260.427024,31.7171147 259.537472,31.5893813 258.68611,31.3228723 C257.98139,31.104313 257.324465,30.7567972 256.74951,30.2984043 C256.248634,29.8990517 255.844914,29.3935139 255.568184,28.8191489 C255.308868,28.2755888 255.173346,27.6823816 255.171182,27.081383 L256.90928,27.081383 C256.927818,27.622894 257.095193,28.1491821 257.393429,28.6037234 C257.662132,28.9970934 258.018162,29.3245722 258.434352,29.5611702 C258.861559,29.8111875 259.327873,29.9891512 259.814179,30.087766 C260.308124,30.1877039 260.810867,30.2390183 261.315043,30.2409574 C261.900771,30.2494319 262.484633,30.1736389 263.0483,30.0159574 C263.504603,29.8855711 263.934025,29.6765079 264.316772,29.3984043 C264.637073,29.1624326 264.901437,28.8601884 265.091412,28.512766 C265.255667,28.19239 265.340313,27.8379104 265.338329,27.4787234 Z" fill="#FFFFFF" fill-rule="nonzero"></path>
                        <path d="M276.449568,31.7010638 C275.474266,31.7072377 274.508798,31.508149 273.617291,31.1170213 C272.774843,30.751222 272.019423,30.214655 271.399885,29.5420213 C270.76205,28.8457731 270.268578,28.0325382 269.947435,27.1484043 C269.591849,26.1706916 269.416394,25.1378681 269.429395,24.0989362 L269.429395,23.5005319 C269.413843,22.396928 269.597467,21.2994262 269.971643,20.2595745 C270.292013,19.3506612 270.784994,18.5106123 271.424092,17.7845745 C272.019277,17.1193951 272.745898,16.5817587 273.559193,16.2047872 C274.358509,15.8322643 275.231859,15.6409071 276.115504,15.6446809 C277.025428,15.6277311 277.92796,15.8091564 278.758963,16.1760638 C279.508952,16.5164273 280.171096,17.0205637 280.695562,17.6505319 C281.237418,18.314603 281.642081,19.0774472 281.886571,19.8957447 C282.165495,20.819746 282.302584,21.7799092 282.293256,22.7441489 L282.293256,23.787766 L271.123919,23.787766 L271.123919,24.1180851 C271.119236,24.93196 271.251772,25.7409155 271.516081,26.5117021 C271.756683,27.2245536 272.129369,27.8868968 272.615101,28.4648936 C273.081444,29.0127601 273.658681,29.4579585 274.309625,29.7718085 C274.989702,30.0977037 275.737491,30.2616523 276.493141,30.2505319 C277.337268,30.2745055 278.176079,30.1109137 278.947781,29.7718085 C279.710113,29.3925997 280.373037,28.8436233 280.88438,28.1680851 L281.968876,28.9819149 C281.701374,29.3633925 281.398258,29.7192075 281.063516,30.0446809 C280.707689,30.3864462 280.307116,30.6794835 279.872507,30.9159574 C279.388956,31.1761697 278.872968,31.3725261 278.337752,31.5 C277.71908,31.6433426 277.08492,31.7108713 276.449568,31.7010638 Z M276.13487,17.1047872 C275.506413,17.0983753 274.883915,17.2257245 274.309625,17.4781915 C273.747529,17.7288794 273.242085,18.0886549 272.823285,18.5361702 C272.37868,19.0230766 272.021704,19.581685 271.767839,20.187766 C271.482675,20.8720457 271.295284,21.592262 271.211066,22.3276596 L280.603573,22.3276596 L280.603573,22.1409574 C280.585509,21.5022413 280.477972,20.8690858 280.284035,20.2595745 C280.096853,19.6843124 279.808388,19.1462609 279.431931,18.6702128 C278.638544,17.6672919 277.41256,17.0940057 276.125187,17.1239362 L276.13487,17.1047872 Z" fill="#FFFFFF" fill-rule="nonzero"></path>
                        <path d="M294.982824,31.418617 C294.875201,31.1076765 294.798979,30.7869631 294.755274,30.4611702 C294.702017,30.0734043 294.668127,29.6808511 294.648761,29.2787234 C294.075438,29.9998234 293.347999,30.586696 292.518501,30.9973404 C291.529624,31.480506 290.440645,31.7296225 289.337637,31.725 C288.631651,31.7336275 287.929316,31.6235495 287.260634,31.3994681 C286.664402,31.1935646 286.11613,30.8712185 285.648415,30.4515957 C284.752878,29.649887 284.250078,28.505537 284.268588,27.3111702 C284.254161,26.6019626 284.420669,25.9005909 284.752738,25.2718085 C285.09466,24.6522823 285.580939,24.1222221 286.171297,23.7255319 C286.857428,23.2751771 287.620061,22.9508396 288.422594,22.7680851 C289.395094,22.5316593 290.393869,22.4174602 291.395274,22.4281915 L294.610029,22.4281915 L294.610029,20.6569149 C294.661069,19.6788247 294.28354,18.7263936 293.573948,18.0430851 C292.728907,17.3550879 291.649832,17.0125582 290.557695,17.0856383 C289.988246,17.0799127 289.421395,17.1622912 288.877695,17.3297872 C288.409536,17.4790117 287.971861,17.7091735 287.585014,18.0095745 C287.228031,18.2764174 286.931228,18.613916 286.713545,19.0005319 C286.507817,19.3716479 286.401174,19.7884986 286.403689,20.2117021 L284.665591,20.2117021 C284.667572,19.62148 284.817268,19.0409191 285.101326,18.5218085 C285.408261,17.9682217 285.822904,17.4801319 286.321383,17.0856383 C286.889501,16.6384519 287.531597,16.2918488 288.219251,16.0611702 C289.009078,15.7943089 289.83929,15.6631582 290.67389,15.6734043 C291.450421,15.6662263 292.223752,15.7726984 292.968761,15.9893617 C293.628443,16.1847183 294.241159,16.5104431 294.769798,16.9468085 C295.27574,17.3774772 295.676331,17.9159788 295.941441,18.5218085 C296.235747,19.2204145 296.379214,19.9721078 296.362651,20.7287234 L296.362651,28.1824468 C296.362651,28.4505319 296.362651,28.7234043 296.362651,29.0106383 C296.362651,29.2978723 296.415908,29.5755319 296.459481,29.843617 C296.503055,30.1117021 296.55147,30.3654255 296.609568,30.6095745 C296.660047,30.8268366 296.728045,31.0397515 296.812911,31.2462766 L296.812911,31.418617 L294.982824,31.418617 Z M289.521614,30.1835106 C290.111012,30.1891233 290.698113,30.110108 291.264553,29.9489362 C291.777308,29.8006645 292.266294,29.5814753 292.717003,29.2978723 C293.138994,29.0358447 293.519184,28.713159 293.845072,28.3404255 C294.159261,27.9824588 294.418624,27.5808398 294.61487,27.1484043 L294.61487,23.7303191 L291.647032,23.7303191 C290.846496,23.7222978 290.047552,23.8025812 289.265014,23.9696809 C288.640617,24.0985574 288.041944,24.3282259 287.493026,24.6494681 C287.040281,24.9139013 286.659689,25.2836536 286.384323,25.7265957 C286.128441,26.1625604 285.996302,26.6587311 286.001844,27.162766 C285.99918,27.5681499 286.08333,27.9695 286.248761,28.3404255 C286.411561,28.7051269 286.650847,29.031477 286.950778,29.2978723 C287.278103,29.5835245 287.65774,29.8045288 288.069164,29.9489362 C288.53554,30.1111918 289.027264,30.1906064 289.521614,30.1835106 Z" fill="#FFFFFF" fill-rule="nonzero"></path>
                        <path d="M307.614294,17.3920213 C307.227665,17.3232422 306.835483,17.2895912 306.442651,17.2914894 C305.90041,17.2837367 305.361084,17.3712659 304.849798,17.55 C304.392152,17.7132428 303.968748,17.9582712 303.600692,18.2728723 C303.23472,18.5859124 302.925289,18.9582481 302.685648,19.3739362 C302.431654,19.8271424 302.234908,20.3094757 302.099827,20.8101064 L302.099827,31.418617 L300.381095,31.418617 L300.381095,15.9319149 L302.070778,15.9319149 L302.099827,18.3925532 C302.490753,17.5860343 303.086215,16.8933428 303.828242,16.3819149 C304.627646,15.8725566 305.564729,15.6154515 306.515274,15.6446809 C306.732812,15.6450031 306.9499,15.664226 307.164035,15.7021277 C307.32992,15.7266006 307.492384,15.7699742 307.648184,15.831383 L307.614294,17.3920213 Z" fill="#FFFFFF" fill-rule="nonzero"></path>
                        <path d="M315.268703,30.2553191 C315.807064,30.257978 316.342645,30.1788643 316.856715,30.0207447 C317.345792,29.8722047 317.803491,29.6369987 318.207493,29.3265957 C318.603123,29.0175122 318.93233,28.6334022 319.175793,28.1968085 C319.440837,27.7165216 319.591522,27.1827546 319.616369,26.6361702 L321.281844,26.6361702 C321.251424,27.3468397 321.061224,28.0418753 320.725072,28.6707447 C320.395596,29.2834295 319.948258,29.826578 319.408184,30.2696809 C318.845976,30.7273055 318.20688,31.0837803 317.52,31.3228723 C316.794211,31.5775849 316.029154,31.7055551 315.25902,31.7010638 C314.257538,31.7255976 313.263723,31.5225112 312.354121,31.1074468 C311.53962,30.7268373 310.824139,30.1667636 310.262594,29.4702128 C309.678063,28.7429257 309.24527,27.9081942 308.98928,27.0143617 C308.696277,26.0273092 308.551105,25.0031359 308.558386,23.9744681 L308.558386,23.3760638 C308.550631,22.3457934 308.695808,21.3199732 308.98928,20.331383 C309.247365,19.4431524 309.676425,18.6125326 310.252911,17.8851064 C310.818481,17.1925614 311.532957,16.6332746 312.344438,16.2478723 C313.252863,15.8283648 314.246987,15.6219387 315.249337,15.6446809 C316.044182,15.6376376 316.834084,15.7688927 317.582939,16.0324468 C318.276443,16.2763939 318.915889,16.6502349 319.466282,17.1335106 C320.007568,17.6206579 320.442511,18.2120011 320.744438,18.8712766 C321.0723,19.5905646 321.254856,20.3662695 321.281844,21.1547872 L319.616369,21.1547872 C319.589851,20.5721737 319.450132,20.0000581 319.204841,19.4696809 C318.757605,18.4944401 317.926863,17.7421824 316.90513,17.387234 C316.374298,17.1975132 315.813774,17.1018984 315.249337,17.1047872 C314.456816,17.079463 313.671178,17.2575902 312.968991,17.6218085 C312.353995,17.9568267 311.829323,18.4329327 311.439078,19.0101064 C311.032118,19.6197206 310.741666,20.2979588 310.582133,21.0111702 C310.399834,21.786493 310.308854,22.5800657 310.311009,23.3760638 L310.311009,23.9744681 C310.308129,24.7799876 310.399103,25.583154 310.582133,26.3680851 C310.738158,27.0816006 311.027112,27.7601742 311.434236,28.3691489 C311.824241,28.9470233 312.351093,29.4219568 312.968991,29.7526596 C313.680296,30.1096518 314.471493,30.2825877 315.268703,30.2553191 Z" fill="#FFFFFF" fill-rule="nonzero"></path>
                        <path d="M325.881268,18.5505319 C326.138581,18.1182456 326.447416,17.7180454 326.801153,17.3585106 C327.507988,16.6407196 328.395308,16.1218953 329.371988,15.8553191 C329.887272,15.7128171 330.420108,15.6419243 330.955159,15.6446809 C331.666855,15.6340081 332.375366,15.7407925 333.051527,15.9606383 C333.651696,16.1602201 334.192364,16.504014 334.625014,16.9611702 C335.076093,17.4736561 335.406778,18.0785675 335.593314,18.7324468 C335.837642,19.5804674 335.951882,20.4599417 335.932219,21.3414894 L335.932219,31.3946809 L334.208646,31.3946809 L334.208646,21.3271277 C334.22713,20.651055 334.14059,19.9761807 333.952046,19.3260638 C333.810646,18.8453226 333.556901,18.4041951 333.211297,18.0382979 C332.890179,17.7127251 332.490184,17.4737705 332.049337,17.3441489 C331.55277,17.1992215 331.037143,17.1282299 330.519424,17.1335106 C329.944139,17.1265497 329.373156,17.2323074 328.839424,17.4446809 C328.351812,17.6407872 327.901564,17.917622 327.508012,18.2632979 C327.122141,18.610212 326.786527,19.0081131 326.510663,19.4457447 C326.238274,19.8760524 326.015777,20.3353311 325.847378,20.8148936 L325.847378,31.418617 L324.123804,31.418617 L324.123804,9.4356383 L325.847378,9.4356383 L325.881268,18.5505319 Z" fill="#FFFFFF" fill-rule="nonzero"></path>
                    </g>
                </g>
            </g>
        </g>
    </g>
</svg>