<?xml version="1.0" encoding="UTF-8"?>
<svg width="145px" height="153px" viewBox="0 0 145 153" version="1.1" xmlns="http://www.w3.org/2000/svg" xmlns:xlink="http://www.w3.org/1999/xlink">
    <!-- Generator: Sketch 49.2 (51160) - http://www.bohemiancoding.com/sketch -->
    <title>logo-bbr-triblock</title>
    <desc>Created with Sketch.</desc>
    <defs>
        <linearGradient x1="29.0124758%" y1="50.0034019%" x2="100.04302%" y2="50.0034019%" id="linearGradient-1">
            <stop stop-color="#166BEE" offset="0%"></stop>
            <stop stop-color="#0F52BA" offset="100%"></stop>
        </linearGradient>
    </defs>
    <g id="Page-1" stroke="none" stroke-width="1" fill="none" fill-rule="evenodd">
        <g id="v3" transform="translate(-729.000000, -642.000000)">
            <g id="logo-bbr-triblock" transform="translate(729.000000, 642.000000)">
                <g id="Shape">
                    <polygon fill="#333333" fill-rule="nonzero" points="95.6482143 102.458311 48.8546429 77.1099324 48.8546429 28.4083784 95.6482143 53.7567568"></polygon>
                    <polygon fill="#1A1A1A" fill-rule="nonzero" points="95.6482143 102.458311 142.441786 77.1099324 142.441786 28.4083784 95.6482143 53.7567568"></polygon>
                    <polygon fill="#666666" fill-rule="nonzero" points="95.6482143 3.06 48.8546429 28.4083784 95.6482143 53.7567568 142.441786 28.4083784"></polygon>
                    <path d="M95.6482143,152.141959 C95.3247807,152.143224 95.0055442,152.068875 94.7160714,151.924865 L47.9328571,128.66473 L47.8603571,128.66473 L1.0875,103.285338 C0.437554823,102.910888 0.0413405332,102.214851 0.0517857143,101.465878 L0.0517857143,52.722973 L0,52.722973 C0.0223492498,51.9854393 0.436789245,51.3156919 1.0875,50.9655405 L94.6642857,0.248108108 C95.2783635,-0.0827418615 96.018065,-0.0827418615 96.6321429,0.248108108 L143.425714,25.5964865 C143.64364,25.7137857 143.837012,25.8717042 143.995357,26.0616892 C144.080513,26.1616875 144.156756,26.2689194 144.223214,26.3821622 C144.361964,26.6514728 144.439749,26.9479182 144.451071,27.2505405 L144.451071,124.560608 C144.451082,125.320482 144.033498,126.019127 143.363571,126.380068 L96.6321429,151.893851 C96.329851,152.056707 95.9917277,152.141968 95.6482143,152.141959 Z M53.3392857,126.731554 L93.5767857,146.73527 L93.5767857,104.856689 L53.3392857,126.731554 Z M97.7196429,102.696081 L97.7196429,146.600878 L140.370357,123.495811 L140.370357,79.6013514 L97.7196429,102.696081 Z M4.14285714,100.277027 L46.7935714,123.382095 L46.7935714,79.3429054 L4.14285714,56.2378378 L4.14285714,100.277027 Z M50.9364286,79.3429054 L50.9364286,123.330405 L93.5767857,100.142635 L93.5767857,56.2378378 L50.9364286,79.3429054 Z M97.7196429,56.1034459 L97.7196429,97.8993243 L137.946786,76.1071622 L97.7196429,56.1034459 Z M6.41107143,52.722973 L48.8753571,75.7143243 L91.3085714,52.722973 L48.8442857,29.7212838 L6.41107143,52.722973 Z M100.132857,52.722973 L140.370357,72.7266892 L140.370357,30.8894595 L100.132857,52.722973 Z M53.2046429,27.4159459 L95.6689286,50.4072973 L138.133214,27.4159459 L95.6689286,4.41425676 L53.2046429,27.4159459 Z" fill="url(#linearGradient-1)" fill-rule="nonzero"></path>
                </g>
            </g>
        </g>
    </g>
</svg>