<?xml version="1.0" encoding="UTF-8"?>
<svg width="272px" height="351px" viewBox="0 0 272 351" version="1.1" xmlns="http://www.w3.org/2000/svg" xmlns:xlink="http://www.w3.org/1999/xlink">
    <!-- Generator: Sketch 49.2 (51160) - http://www.bohemiancoding.com/sketch -->
    <title>logo-bbr-triblock-section2</title>
    <desc>Created with Sketch.</desc>
    <defs></defs>
    <g id="Page-1" stroke="none" stroke-width="1" fill="none" fill-rule="evenodd" opacity="0.254359149">
        <g id="v3" transform="translate(-1008.000000, -1213.000000)" fill="#666666" fill-rule="nonzero">
            <g id="WHAT-WE-DO" transform="translate(0.000000, 1015.000000)">
                <g id="logo-bbr-triblock-section2" transform="translate(1008.000000, 198.000000)">
                    <path d="M220.495806,350.999963 C219.750201,351.002882 219.014272,350.831353 218.346956,350.499114 L110.498602,296.836699 L110.331469,296.836699 L2.50699075,238.285041 C1.00868588,237.421165 0.095301457,235.815368 0.119380512,234.087448 L0.119380512,121.634876 L0,121.634876 C0.051521253,119.933345 1.00692101,118.388201 2.50699075,117.580382 L218.227576,0.572466852 C219.643196,-0.190822284 221.348415,-0.190822284 222.764035,0.572466852 L330.636266,59.0525745 C331.138646,59.3231903 331.584422,59.687517 331.949451,60.1258228 C332.14576,60.3565244 332.32152,60.6039142 332.474726,60.8651716 C332.794582,61.4864861 332.973899,62.1704021 333,62.8685685 L333,287.368264 C333.000025,289.121335 332.037378,290.733148 330.493009,291.565857 L222.764035,350.427564 C222.067168,350.803281 221.2877,350.999984 220.495806,350.999963 Z M122.961927,292.376756 L215.720585,338.526433 L215.720585,241.910236 L122.961927,292.376756 Z M225.271026,236.925594 L225.271026,338.216384 L323.592816,284.911718 L323.592816,183.644778 L225.271026,236.925594 Z M9.55044096,231.344702 L107.872231,284.649368 L107.872231,183.048529 L9.55044096,129.743863 L9.55044096,231.344702 Z M117.422672,183.048529 L117.422672,284.530118 L215.720585,231.034653 L215.720585,129.743863 L117.422672,183.048529 Z M225.271026,129.433813 L225.271026,225.859211 L318.005808,175.58349 L225.271026,129.433813 Z M14.7793074,121.634876 L112.671327,174.677192 L210.491719,121.634876 L112.599699,68.5687095 L14.7793074,121.634876 Z M230.834158,121.634876 L323.592816,167.784553 L323.592816,71.2637552 L230.834158,121.634876 Z M122.651538,63.2501679 L220.543558,116.292484 L318.435578,63.2501679 L220.543558,10.1840017 L122.651538,63.2501679 Z" id="Shape"></path>
                </g>
            </g>
        </g>
    </g>
</svg>