<?xml version="1.0" encoding="UTF-8"?>
<svg width="66px" height="40px" viewBox="0 0 66 40" version="1.1" xmlns="http://www.w3.org/2000/svg" xmlns:xlink="http://www.w3.org/1999/xlink">
    <!-- Generator: Sketch 49.2 (51160) - http://www.bohemiancoding.com/sketch -->
    <title>users</title>
    <desc>Created with Sketch.</desc>
    <defs></defs>
    <g id="Page-1" stroke="none" stroke-width="1" fill="none" fill-rule="evenodd">
        <g id="v3" transform="translate(-945.000000, -6583.000000)" fill="#FFFFFF" fill-rule="nonzero">
            <g id="OUR-REPORTS-CONSIDER" transform="translate(0.000000, 5820.000000)">
                <g id="users" transform="translate(945.000000, 763.000000)">
                    <path d="M33,0 C38.9802187,0 43.828125,4.896875 43.828125,10.9375 C43.828125,16.978125 38.9802187,21.875 33,21.875 C27.0197812,21.875 22.171875,16.978125 22.171875,10.9375 C22.171875,4.896875 27.0197812,0 33,0 Z M44.7008719,22.6422917 L40.5777281,21.6010417 C35.5072781,25.2848958 29.3612344,24.4628125 25.422375,21.6010417 L21.2992312,22.6422917 C17.9937656,23.4769792 15.675,26.4767708 15.675,29.9183333 L15.675,36.25 C15.675,38.3210417 17.3371687,40 19.3875,40 L46.6125,40 C48.6628312,40 50.325,38.3210417 50.325,36.25 L50.325,29.9183333 C50.325,26.4767708 48.0062344,23.4769792 44.7008719,22.6422917 Z M54.45,24.5833333 C58.4368125,24.5833333 61.66875,21.31875 61.66875,17.2916667 C61.66875,13.2645833 58.4368125,10 54.45,10 C50.4631875,10 47.23125,13.2645833 47.23125,17.2916667 C47.23125,21.31875 50.4631875,24.5833333 54.45,24.5833333 Z M11.55,24.5833333 C15.5368125,24.5833333 18.76875,21.31875 18.76875,17.2916667 C18.76875,13.2645833 15.5368125,10 11.55,10 C7.5631875,10 4.33125,13.2645833 4.33125,17.2916667 C4.33125,21.31875 7.5631875,24.5833333 11.55,24.5833333 Z M14.025,36.25 L14.025,29.9183333 C14.025,28.1942708 14.4986531,26.56375 15.3349969,25.1684375 C12.2424844,26.7017708 8.80347187,26.0755208 6.49821562,24.4007292 L3.74941875,25.0948958 C1.54584375,25.65125 0,27.65125 0,29.9455208 L0,34.1666667 C0,35.5473958 1.10807812,36.6666667 2.475,36.6666667 L14.0424281,36.6666667 C14.0313679,36.5280526 14.0255543,36.3890624 14.025,36.25 Z M62.2505812,25.0947917 L59.5017844,24.400625 C56.6220187,26.4929167 53.2225031,26.4040625 50.6551031,25.1525 C51.4974281,26.5513542 51.975,28.1876042 51.975,29.9183333 L51.975,36.25 C51.975,36.3903125 51.9679875,36.5289583 51.9575719,36.6666667 L63.525,36.6666667 C64.8919219,36.6666667 66,35.5473958 66,34.1666667 L66,29.9455208 C66,27.65125 64.4541562,25.65125 62.2505812,25.0947917 Z" id="Shape"></path>
                </g>
            </g>
        </g>
    </g>
</svg>